<?xml version="1.0" encoding="UTF-8" standalone="no"?>
<!DOCTYPE svg PUBLIC "-//W3C//DTD SVG 1.1//EN"
 "http://www.w3.org/Graphics/SVG/1.1/DTD/svg11.dtd">
<!-- Generated by graphviz version 2.40.1 (20161225.0304)
 -->
<!-- Title: Model Pages: 1 -->
<svg width="1033pt" height="1655pt"
 viewBox="0.00 0.00 1032.78 1655.00" xmlns="http://www.w3.org/2000/svg" xmlns:xlink="http://www.w3.org/1999/xlink">
<g id="graph0" class="graph" transform="scale(1 1) rotate(0) translate(4 1651)">
<title>Model</title>
<polygon fill="#ffffff" stroke="transparent" points="-4,4 -4,-1651 1028.7769,-1651 1028.7769,4 -4,4"/>
<!-- node0 -->
<g id="node1" class="node">
<title>node0</title>
<path fill="transparent" stroke="#000000" d="M730.6023,-1407C730.6023,-1407 662.4245,-1407 662.4245,-1407 656.4245,-1407 650.4245,-1401 650.4245,-1395 650.4245,-1395 650.4245,-1383 650.4245,-1383 650.4245,-1377 656.4245,-1371 662.4245,-1371 662.4245,-1371 730.6023,-1371 730.6023,-1371 736.6023,-1371 742.6023,-1377 742.6023,-1383 742.6023,-1383 742.6023,-1395 742.6023,-1395 742.6023,-1401 736.6023,-1407 730.6023,-1407"/>
<text text-anchor="middle" x="696.5134" y="-1386" font-family="Times,serif" font-size="10.00" fill="#0000ff">skill[vint9][player]</text>
</g>
<!-- node1 -->
<g id="node2" class="node">
<title>node1</title>
<path fill="#000000" stroke="#000000" d="M650.5134,-1327C650.5134,-1327 620.5134,-1327 620.5134,-1327 614.5134,-1327 608.5134,-1321 608.5134,-1315 608.5134,-1315 608.5134,-1303 608.5134,-1303 608.5134,-1297 614.5134,-1291 620.5134,-1291 620.5134,-1291 650.5134,-1291 650.5134,-1291 656.5134,-1291 662.5134,-1297 662.5134,-1303 662.5134,-1303 662.5134,-1315 662.5134,-1315 662.5134,-1321 656.5134,-1327 650.5134,-1327"/>
<text text-anchor="middle" x="635.5134" y="-1306.6" font-family="Times,serif" font-size="8.00" fill="#ffffff">Gaussian</text>
</g>
<!-- node0&#45;&gt;node1 -->
<g id="edge1" class="edge">
<title>node0&#45;&gt;node1</title>
<path fill="none" stroke="#000000" d="M675.571,-1370.9947C669.8805,-1365.5409 663.9747,-1359.3139 659.1892,-1353 655.3626,-1347.9512 651.7924,-1342.2021 648.6439,-1336.5632"/>
<polygon fill="#000000" stroke="#000000" points="651.5312,-1334.5349 643.7722,-1327.3204 645.3387,-1337.7988 651.5312,-1334.5349"/>
<text text-anchor="middle" x="667.1755" y="-1346.6" font-family="Times,serif" font-size="8.00" fill="#d3d3d3">mean</text>
</g>
<!-- node3 -->
<g id="node4" class="node">
<title>node3</title>
<path fill="transparent" stroke="#000000" d="M671.7531,-1247C671.7531,-1247 607.2738,-1247 607.2738,-1247 601.2738,-1247 595.2738,-1241 595.2738,-1235 595.2738,-1235 595.2738,-1223 595.2738,-1223 595.2738,-1217 601.2738,-1211 607.2738,-1211 607.2738,-1211 671.7531,-1211 671.7531,-1211 677.7531,-1211 683.7531,-1217 683.7531,-1223 683.7531,-1223 683.7531,-1235 683.7531,-1235 683.7531,-1241 677.7531,-1247 671.7531,-1247"/>
<text text-anchor="middle" x="639.5134" y="-1226" font-family="Times,serif" font-size="10.00" fill="#0000ff">skill[year][player]</text>
</g>
<!-- node1&#45;&gt;node3 -->
<g id="edge3" class="edge">
<title>node1&#45;&gt;node3</title>
<path fill="none" stroke="#000000" d="M636.4211,-1290.8468C636.9172,-1280.9251 637.5426,-1268.4167 638.101,-1257.2492"/>
<polygon fill="#000000" stroke="#000000" points="641.6055,-1257.2437 638.6094,-1247.0814 634.6143,-1256.8941 641.6055,-1257.2437"/>
</g>
<!-- node2 -->
<g id="node3" class="node">
<title>node2</title>
<path fill="transparent" stroke="transparent" d="M620.5146,-1407C620.5146,-1407 536.5123,-1407 536.5123,-1407 530.5123,-1407 524.5123,-1401 524.5123,-1395 524.5123,-1395 524.5123,-1383 524.5123,-1383 524.5123,-1377 530.5123,-1371 536.5123,-1371 536.5123,-1371 620.5146,-1371 620.5146,-1371 626.5146,-1371 632.5146,-1377 632.5146,-1383 632.5146,-1383 632.5146,-1395 632.5146,-1395 632.5146,-1401 626.5146,-1407 620.5146,-1407"/>
<text text-anchor="middle" x="578.5134" y="-1386" font-family="Times,serif" font-size="10.00" fill="#0000ff">0.00663827805442561</text>
</g>
<!-- node2&#45;&gt;node1 -->
<g id="edge2" class="edge">
<title>node2&#45;&gt;node1</title>
<path fill="none" stroke="#000000" d="M583.7122,-1370.9588C586.6131,-1362.6205 590.752,-1352.8503 596.1892,-1345 598.7485,-1341.3048 601.7519,-1337.7161 604.9388,-1334.3265"/>
<polygon fill="#000000" stroke="#000000" points="607.443,-1336.7726 612.1075,-1327.2598 602.5288,-1331.7875 607.443,-1336.7726"/>
<text text-anchor="middle" x="611.1755" y="-1346.6" font-family="Times,serif" font-size="8.00" fill="#d3d3d3">precision</text>
</g>
<!-- node3&#45;&gt;node0 -->
<g id="edge96" class="edge">
<title>node3&#45;&gt;node0</title>
<path fill="none" stroke="#000000" d="M650.3094,-1247.2145C657.1238,-1259.308 665.7051,-1275.7137 671.5134,-1291 681.8041,-1318.0828 689.215,-1350.9654 693.1833,-1370.9207"/>
</g>
<!-- node6 -->
<g id="node7" class="node">
<title>node6</title>
<path fill="transparent" stroke="#000000" d="M835.2139,-1174C835.2139,-1174 695.813,-1174 695.813,-1174 689.813,-1174 683.813,-1168 683.813,-1162 683.813,-1162 683.813,-1150 683.813,-1150 683.813,-1144 689.813,-1138 695.813,-1138 695.813,-1138 835.2139,-1138 835.2139,-1138 841.2139,-1138 847.2139,-1144 847.2139,-1150 847.2139,-1150 847.2139,-1162 847.2139,-1162 847.2139,-1168 841.2139,-1174 835.2139,-1174"/>
<text text-anchor="middle" x="765.5134" y="-1153" font-family="Times,serif" font-size="10.00" fill="#0000ff">skill[year][whitePlayer[year][game]]</text>
</g>
<!-- node3&#45;&gt;node6 -->
<g id="edge97" class="edge">
<title>node3&#45;&gt;node6</title>
<path fill="none" stroke="#000000" d="M670.6595,-1210.9551C690.0444,-1199.7241 714.8894,-1185.3298 734.289,-1174.0904"/>
</g>
<!-- node10 -->
<g id="node11" class="node">
<title>node10</title>
<path fill="transparent" stroke="#000000" d="M654.1522,-1174C654.1522,-1174 514.8747,-1174 514.8747,-1174 508.8747,-1174 502.8747,-1168 502.8747,-1162 502.8747,-1162 502.8747,-1150 502.8747,-1150 502.8747,-1144 508.8747,-1138 514.8747,-1138 514.8747,-1138 654.1522,-1138 654.1522,-1138 660.1522,-1138 666.1522,-1144 666.1522,-1150 666.1522,-1150 666.1522,-1162 666.1522,-1162 666.1522,-1168 660.1522,-1174 654.1522,-1174"/>
<text text-anchor="middle" x="584.5134" y="-1153" font-family="Times,serif" font-size="10.00" fill="#0000ff">skill[year][blackPlayer[year][game]]</text>
</g>
<!-- node3&#45;&gt;node10 -->
<g id="edge98" class="edge">
<title>node3&#45;&gt;node10</title>
<path fill="none" stroke="#000000" d="M625.9179,-1210.9551C617.4563,-1199.7241 606.6112,-1185.3298 598.1432,-1174.0904"/>
</g>
<!-- node4 -->
<g id="node5" class="node">
<title>node4</title>
<path fill="transparent" stroke="#000000" d="M503.5134,-1327C503.5134,-1327 473.5134,-1327 473.5134,-1327 467.5134,-1327 461.5134,-1321 461.5134,-1315 461.5134,-1315 461.5134,-1303 461.5134,-1303 461.5134,-1297 467.5134,-1291 473.5134,-1291 473.5134,-1291 503.5134,-1291 503.5134,-1291 509.5134,-1291 515.5134,-1297 515.5134,-1303 515.5134,-1303 515.5134,-1315 515.5134,-1315 515.5134,-1321 509.5134,-1327 503.5134,-1327"/>
<text text-anchor="middle" x="488.5134" y="-1306" font-family="Times,serif" font-size="10.00" fill="#0000ff">vbool1</text>
</g>
<!-- node4&#45;&gt;node3 -->
<g id="edge4" class="edge">
<title>node4&#45;&gt;node3</title>
<path fill="none" stroke="#000000" d="M484.0798,-1290.9923C483.0231,-1282.2628 483.5536,-1272.148 489.2947,-1265 501.3576,-1249.9808 547.1889,-1240.4813 585.0895,-1235.0363"/>
<polygon fill="#000000" stroke="#000000" points="585.5987,-1238.4993 595.0303,-1233.6727 584.6474,-1231.5643 585.5987,-1238.4993"/>
<text text-anchor="middle" x="504.6228" y="-1266.6" font-family="Times,serif" font-size="8.00" fill="#d3d3d3">condition</text>
</g>
<!-- node53 -->
<g id="node54" class="node">
<title>node53</title>
<path fill="transparent" stroke="#000000" d="M309.7793,-1247C309.7793,-1247 213.2476,-1247 213.2476,-1247 207.2476,-1247 201.2476,-1241 201.2476,-1235 201.2476,-1235 201.2476,-1223 201.2476,-1223 201.2476,-1217 207.2476,-1211 213.2476,-1211 213.2476,-1211 309.7793,-1211 309.7793,-1211 315.7793,-1211 321.7793,-1217 321.7793,-1223 321.7793,-1223 321.7793,-1235 321.7793,-1235 321.7793,-1241 315.7793,-1247 309.7793,-1247"/>
<text text-anchor="middle" x="261.5134" y="-1226" font-family="Times,serif" font-size="10.00" fill="#0000ff">drawMargin[year][player]</text>
</g>
<!-- node4&#45;&gt;node53 -->
<g id="edge61" class="edge">
<title>node4&#45;&gt;node53</title>
<path fill="none" stroke="#000000" d="M461.3902,-1294.2528C458.4489,-1293.0133 455.455,-1291.8945 452.5134,-1291 391.9789,-1272.5915 368.9297,-1299.1058 311.2947,-1273 301.5232,-1268.574 292.2815,-1261.5569 284.4742,-1254.4155"/>
<polygon fill="#000000" stroke="#000000" points="286.7888,-1251.7843 277.1786,-1247.324 281.9098,-1256.8038 286.7888,-1251.7843"/>
<text text-anchor="middle" x="326.6228" y="-1266.6" font-family="Times,serif" font-size="8.00" fill="#d3d3d3">condition</text>
</g>
<!-- node5 -->
<g id="node6" class="node">
<title>node5</title>
<path fill="transparent" stroke="#000000" d="M431.4575,-1327C431.4575,-1327 395.5694,-1327 395.5694,-1327 389.5694,-1327 383.5694,-1321 383.5694,-1315 383.5694,-1315 383.5694,-1303 383.5694,-1303 383.5694,-1297 389.5694,-1291 395.5694,-1291 395.5694,-1291 431.4575,-1291 431.4575,-1291 437.4575,-1291 443.4575,-1297 443.4575,-1303 443.4575,-1303 443.4575,-1315 443.4575,-1315 443.4575,-1321 437.4575,-1327 431.4575,-1327"/>
<text text-anchor="middle" x="413.5134" y="-1306" font-family="Times,serif" font-size="10.00" fill="#0000ff">isFirstYear</text>
</g>
<!-- node5&#45;&gt;node3 -->
<g id="edge5" class="edge">
<title>node5&#45;&gt;node3</title>
<path fill="none" stroke="#000000" d="M424.6729,-1290.9614C431.2902,-1281.778 440.4919,-1271.2592 451.2947,-1265 473.554,-1252.1028 537.6096,-1241.6501 584.8387,-1235.3952"/>
<polygon fill="#000000" stroke="#000000" points="585.4725,-1238.8424 594.9401,-1234.0868 584.5733,-1231.9004 585.4725,-1238.8424"/>
<text text-anchor="middle" x="466.6228" y="-1266.6" font-family="Times,serif" font-size="8.00" fill="#d3d3d3">condition</text>
</g>
<!-- node5&#45;&gt;node53 -->
<g id="edge62" class="edge">
<title>node5&#45;&gt;node53</title>
<path fill="none" stroke="#000000" d="M383.5418,-1293.8556C380.8641,-1292.7929 378.1635,-1291.8198 375.5134,-1291 351.1757,-1283.4709 279.0055,-1292.2291 262.2947,-1273 258.536,-1268.6749 256.9127,-1263.1075 256.496,-1257.3969"/>
<polygon fill="#000000" stroke="#000000" points="260.0008,-1257.3158 256.8488,-1247.2007 253.005,-1257.0736 260.0008,-1257.3158"/>
<text text-anchor="middle" x="277.6228" y="-1266.6" font-family="Times,serif" font-size="8.00" fill="#d3d3d3">condition</text>
</g>
<!-- node7 -->
<g id="node8" class="node">
<title>node7</title>
<path fill="#000000" stroke="#000000" d="M780.5134,-1066C780.5134,-1066 750.5134,-1066 750.5134,-1066 744.5134,-1066 738.5134,-1060 738.5134,-1054 738.5134,-1054 738.5134,-1042 738.5134,-1042 738.5134,-1036 744.5134,-1030 750.5134,-1030 750.5134,-1030 780.5134,-1030 780.5134,-1030 786.5134,-1030 792.5134,-1036 792.5134,-1042 792.5134,-1042 792.5134,-1054 792.5134,-1054 792.5134,-1060 786.5134,-1066 780.5134,-1066"/>
<text text-anchor="middle" x="765.5134" y="-1045.6" font-family="Times,serif" font-size="8.00" fill="#ffffff">Gaussian</text>
</g>
<!-- node6&#45;&gt;node7 -->
<g id="edge6" class="edge">
<title>node6&#45;&gt;node7</title>
<path fill="none" stroke="#000000" d="M765.5134,-1137.6793C765.5134,-1120.821 765.5134,-1095.5651 765.5134,-1076.147"/>
<polygon fill="#000000" stroke="#000000" points="769.0135,-1076.0501 765.5134,-1066.0502 762.0135,-1076.0502 769.0135,-1076.0501"/>
<text text-anchor="middle" x="774.1755" y="-1099.6" font-family="Times,serif" font-size="8.00" fill="#d3d3d3">mean</text>
</g>
<!-- node9 -->
<g id="node10" class="node">
<title>node9</title>
<path fill="transparent" stroke="#000000" d="M756.253,-958C756.253,-958 686.7738,-958 686.7738,-958 680.7738,-958 674.7738,-952 674.7738,-946 674.7738,-946 674.7738,-934 674.7738,-934 674.7738,-928 680.7738,-922 686.7738,-922 686.7738,-922 756.253,-922 756.253,-922 762.253,-922 768.253,-928 768.253,-934 768.253,-934 768.253,-946 768.253,-946 768.253,-952 762.253,-958 756.253,-958"/>
<text text-anchor="middle" x="721.5134" y="-937" font-family="Times,serif" font-size="10.00" fill="#0000ff">white_performance</text>
</g>
<!-- node7&#45;&gt;node9 -->
<g id="edge8" class="edge">
<title>node7&#45;&gt;node9</title>
<path fill="none" stroke="#000000" d="M758.0494,-1029.6793C751.0858,-1012.5868 740.6053,-986.8619 732.6525,-967.3413"/>
<polygon fill="#000000" stroke="#000000" points="735.8816,-965.9905 728.8672,-958.0502 729.3989,-968.6317 735.8816,-965.9905"/>
</g>
<!-- node8 -->
<g id="node9" class="node">
<title>node8</title>
<path fill="transparent" stroke="transparent" d="M961.4519,-1174C961.4519,-1174 877.5749,-1174 877.5749,-1174 871.5749,-1174 865.5749,-1168 865.5749,-1162 865.5749,-1162 865.5749,-1150 865.5749,-1150 865.5749,-1144 871.5749,-1138 877.5749,-1138 877.5749,-1138 961.4519,-1138 961.4519,-1138 967.4519,-1138 973.4519,-1144 973.4519,-1150 973.4519,-1150 973.4519,-1162 973.4519,-1162 973.4519,-1168 967.4519,-1174 961.4519,-1174"/>
<text text-anchor="middle" x="919.5134" y="-1153" font-family="Times,serif" font-size="10.00" fill="#0000ff">4.7393843354243E&#45;06</text>
</g>
<!-- node8&#45;&gt;node7 -->
<g id="edge7" class="edge">
<title>node8&#45;&gt;node7</title>
<path fill="none" stroke="#000000" d="M911.085,-1137.8749C902.6771,-1121.6371 888.313,-1098.2478 869.5134,-1084 850.015,-1069.2225 824.0031,-1060.2213 802.8718,-1054.9151"/>
<polygon fill="#000000" stroke="#000000" points="803.4739,-1051.4617 792.9402,-1052.5979 801.8834,-1058.2786 803.4739,-1051.4617"/>
<text text-anchor="middle" x="915.1755" y="-1099.6" font-family="Times,serif" font-size="8.00" fill="#d3d3d3">precision</text>
</g>
<!-- node11 -->
<g id="node12" class="node">
<title>node11</title>
<path fill="#000000" stroke="#000000" d="M625.5134,-1066C625.5134,-1066 595.5134,-1066 595.5134,-1066 589.5134,-1066 583.5134,-1060 583.5134,-1054 583.5134,-1054 583.5134,-1042 583.5134,-1042 583.5134,-1036 589.5134,-1030 595.5134,-1030 595.5134,-1030 625.5134,-1030 625.5134,-1030 631.5134,-1030 637.5134,-1036 637.5134,-1042 637.5134,-1042 637.5134,-1054 637.5134,-1054 637.5134,-1060 631.5134,-1066 625.5134,-1066"/>
<text text-anchor="middle" x="610.5134" y="-1045.6" font-family="Times,serif" font-size="8.00" fill="#ffffff">Gaussian</text>
</g>
<!-- node8&#45;&gt;node11 -->
<g id="edge10" class="edge">
<title>node8&#45;&gt;node11</title>
<path fill="none" stroke="#000000" d="M872.7947,-1137.9521C860.6189,-1132.675 847.6932,-1126.5481 836.1892,-1120 812.4929,-1106.5119 811.4713,-1094.9794 786.5134,-1084 762.0665,-1073.2454 691.5548,-1060.7677 647.5572,-1053.6861"/>
<polygon fill="#000000" stroke="#000000" points="647.9497,-1050.2046 637.5241,-1052.0906 646.8503,-1057.1178 647.9497,-1050.2046"/>
<text text-anchor="middle" x="850.1755" y="-1099.6" font-family="Times,serif" font-size="8.00" fill="#d3d3d3">precision</text>
</g>
<!-- node49 -->
<g id="node50" class="node">
<title>node49</title>
<path fill="#000000" stroke="#000000" d="M659.5134,-850C659.5134,-850 629.5134,-850 629.5134,-850 623.5134,-850 617.5134,-844 617.5134,-838 617.5134,-838 617.5134,-826 617.5134,-826 617.5134,-820 623.5134,-814 629.5134,-814 629.5134,-814 659.5134,-814 659.5134,-814 665.5134,-814 671.5134,-820 671.5134,-826 671.5134,-826 671.5134,-838 671.5134,-838 671.5134,-844 665.5134,-850 659.5134,-850"/>
<text text-anchor="middle" x="644.5134" y="-829.6" font-family="Times,serif" font-size="8.00" fill="#ffffff">Minus</text>
</g>
<!-- node9&#45;&gt;node49 -->
<g id="edge51" class="edge">
<title>node9&#45;&gt;node49</title>
<path fill="none" stroke="#000000" d="M708.4514,-921.6793C696.0426,-904.2746 677.2522,-877.9193 663.2487,-858.278"/>
<polygon fill="#000000" stroke="#000000" points="666.0377,-856.1608 657.3825,-850.0502 660.338,-860.2245 666.0377,-856.1608"/>
<text text-anchor="middle" x="695.2888" y="-883.6" font-family="Times,serif" font-size="8.00" fill="#d3d3d3">a</text>
</g>
<!-- node10&#45;&gt;node11 -->
<g id="edge9" class="edge">
<title>node10&#45;&gt;node11</title>
<path fill="none" stroke="#000000" d="M588.924,-1137.6793C593.0012,-1120.7429 599.1189,-1095.3311 603.8021,-1075.8777"/>
<polygon fill="#000000" stroke="#000000" points="607.2302,-1076.5916 606.168,-1066.0502 600.4246,-1074.9532 607.2302,-1076.5916"/>
<text text-anchor="middle" x="610.1755" y="-1099.6" font-family="Times,serif" font-size="8.00" fill="#d3d3d3">mean</text>
</g>
<!-- node12 -->
<g id="node13" class="node">
<title>node12</title>
<path fill="transparent" stroke="#000000" d="M645.1913,-958C645.1913,-958 575.8355,-958 575.8355,-958 569.8355,-958 563.8355,-952 563.8355,-946 563.8355,-946 563.8355,-934 563.8355,-934 563.8355,-928 569.8355,-922 575.8355,-922 575.8355,-922 645.1913,-922 645.1913,-922 651.1913,-922 657.1913,-928 657.1913,-934 657.1913,-934 657.1913,-946 657.1913,-946 657.1913,-952 651.1913,-958 645.1913,-958"/>
<text text-anchor="middle" x="610.5134" y="-937" font-family="Times,serif" font-size="10.00" fill="#0000ff">black_performance</text>
</g>
<!-- node11&#45;&gt;node12 -->
<g id="edge11" class="edge">
<title>node11&#45;&gt;node12</title>
<path fill="none" stroke="#000000" d="M610.5134,-1029.6793C610.5134,-1012.821 610.5134,-987.5651 610.5134,-968.147"/>
<polygon fill="#000000" stroke="#000000" points="614.0135,-968.0501 610.5134,-958.0502 607.0135,-968.0502 614.0135,-968.0501"/>
</g>
<!-- node12&#45;&gt;node49 -->
<g id="edge52" class="edge">
<title>node12&#45;&gt;node49</title>
<path fill="none" stroke="#000000" d="M616.2811,-921.6793C621.6375,-904.6649 629.6867,-879.0967 635.8217,-859.6091"/>
<polygon fill="#000000" stroke="#000000" points="639.1665,-860.6397 638.831,-850.0502 632.4896,-858.5376 639.1665,-860.6397"/>
<text text-anchor="middle" x="635.5134" y="-883.6" font-family="Times,serif" font-size="8.00" fill="#d3d3d3">b</text>
</g>
<!-- node13 -->
<g id="node14" class="node">
<title>node13</title>
<path fill="transparent" stroke="transparent" d="M1012.541,-1327C1012.541,-1327 874.4859,-1327 874.4859,-1327 868.4859,-1327 862.4859,-1321 862.4859,-1315 862.4859,-1315 862.4859,-1303 862.4859,-1303 862.4859,-1297 868.4859,-1291 874.4859,-1291 874.4859,-1291 1012.541,-1291 1012.541,-1291 1018.541,-1291 1024.541,-1297 1024.541,-1303 1024.541,-1303 1024.541,-1315 1024.541,-1315 1024.541,-1321 1018.541,-1327 1012.541,-1327"/>
<text text-anchor="middle" x="943.5134" y="-1306.3" font-family="Times,serif" font-size="9.00" fill="#000000">Gamma(2, 1.563e&#45;06)[mean=3.125e&#45;06]</text>
</g>
<!-- node14 -->
<g id="node15" class="node">
<title>node14</title>
<path fill="#000000" stroke="#000000" d="M949.5134,-1247C949.5134,-1247 919.5134,-1247 919.5134,-1247 913.5134,-1247 907.5134,-1241 907.5134,-1235 907.5134,-1235 907.5134,-1223 907.5134,-1223 907.5134,-1217 913.5134,-1211 919.5134,-1211 919.5134,-1211 949.5134,-1211 949.5134,-1211 955.5134,-1211 961.5134,-1217 961.5134,-1223 961.5134,-1223 961.5134,-1235 961.5134,-1235 961.5134,-1241 955.5134,-1247 949.5134,-1247"/>
<text text-anchor="middle" x="934.5134" y="-1226.6" font-family="Times,serif" font-size="8.00" fill="#ffffff">Random</text>
</g>
<!-- node13&#45;&gt;node14 -->
<g id="edge12" class="edge">
<title>node13&#45;&gt;node14</title>
<path fill="none" stroke="#000000" d="M941.4712,-1290.8468C940.355,-1280.9251 938.9478,-1268.4167 937.6915,-1257.2492"/>
<polygon fill="#000000" stroke="#000000" points="941.1437,-1256.6274 936.5476,-1247.0814 934.1876,-1257.41 941.1437,-1256.6274"/>
<text text-anchor="middle" x="944.2927" y="-1266.6" font-family="Times,serif" font-size="8.00" fill="#d3d3d3">dist</text>
</g>
<!-- node14&#45;&gt;node8 -->
<g id="edge13" class="edge">
<title>node14&#45;&gt;node8</title>
<path fill="none" stroke="#000000" d="M930.8056,-1210.9551C929.1289,-1202.7951 927.109,-1192.9652 925.244,-1183.8887"/>
<polygon fill="#000000" stroke="#000000" points="928.6718,-1183.1812 923.2306,-1174.0904 921.8151,-1184.5902 928.6718,-1183.1812"/>
</g>
<!-- node15 -->
<g id="node16" class="node">
<title>node15</title>
<path fill="transparent" stroke="#000000" d="M223.2402,-1120C223.2402,-1120 51.7867,-1120 51.7867,-1120 45.7867,-1120 39.7867,-1114 39.7867,-1108 39.7867,-1108 39.7867,-1096 39.7867,-1096 39.7867,-1090 45.7867,-1084 51.7867,-1084 51.7867,-1084 223.2402,-1084 223.2402,-1084 229.2402,-1084 235.2402,-1090 235.2402,-1096 235.2402,-1096 235.2402,-1108 235.2402,-1108 235.2402,-1114 229.2402,-1120 223.2402,-1120"/>
<text text-anchor="middle" x="137.5134" y="-1099" font-family="Times,serif" font-size="10.00" fill="#0000ff">drawMargin[year][whitePlayer[year][game]]</text>
</g>
<!-- node16 -->
<g id="node17" class="node">
<title>node16</title>
<path fill="#000000" stroke="#000000" d="M161.5134,-850C161.5134,-850 131.5134,-850 131.5134,-850 125.5134,-850 119.5134,-844 119.5134,-838 119.5134,-838 119.5134,-826 119.5134,-826 119.5134,-820 125.5134,-814 131.5134,-814 131.5134,-814 161.5134,-814 161.5134,-814 167.5134,-814 173.5134,-820 173.5134,-826 173.5134,-826 173.5134,-838 173.5134,-838 173.5134,-844 167.5134,-850 161.5134,-850"/>
<text text-anchor="middle" x="146.5134" y="-829.6" font-family="Times,serif" font-size="8.00" fill="#ffffff">Copy</text>
</g>
<!-- node15&#45;&gt;node16 -->
<g id="edge14" class="edge">
<title>node15&#45;&gt;node16</title>
<path fill="none" stroke="#000000" d="M138.1179,-1083.8653C139.655,-1037.7529 143.7216,-915.7537 145.5724,-860.2316"/>
<polygon fill="#000000" stroke="#000000" points="149.0764,-860.1669 145.9116,-850.0558 142.0803,-859.9336 149.0764,-860.1669"/>
<text text-anchor="middle" x="151.1755" y="-991.6" font-family="Times,serif" font-size="8.00" fill="#d3d3d3">value</text>
</g>
<!-- node17 -->
<g id="node18" class="node">
<title>node17</title>
<path fill="transparent" stroke="#000000" d="M205.9844,-777C205.9844,-777 137.0425,-777 137.0425,-777 131.0425,-777 125.0425,-771 125.0425,-765 125.0425,-765 125.0425,-753 125.0425,-753 125.0425,-747 131.0425,-741 137.0425,-741 137.0425,-741 205.9844,-741 205.9844,-741 211.9844,-741 217.9844,-747 217.9844,-753 217.9844,-753 217.9844,-765 217.9844,-765 217.9844,-771 211.9844,-777 205.9844,-777"/>
<text text-anchor="middle" x="171.5134" y="-756" font-family="Times,serif" font-size="10.00" fill="#0000ff">white_drawMargin</text>
</g>
<!-- node16&#45;&gt;node17 -->
<g id="edge15" class="edge">
<title>node16&#45;&gt;node17</title>
<path fill="none" stroke="#000000" d="M152.6932,-813.9551C155.5178,-805.7074 158.9266,-795.7536 162.0627,-786.5962"/>
<polygon fill="#000000" stroke="#000000" points="165.3893,-787.685 165.3181,-777.0904 158.7669,-785.417 165.3893,-787.685"/>
</g>
<!-- node27 -->
<g id="node28" class="node">
<title>node27</title>
<path fill="#000000" stroke="#000000" d="M193.5134,-537C193.5134,-537 163.5134,-537 163.5134,-537 157.5134,-537 151.5134,-531 151.5134,-525 151.5134,-525 151.5134,-513 151.5134,-513 151.5134,-507 157.5134,-501 163.5134,-501 163.5134,-501 193.5134,-501 193.5134,-501 199.5134,-501 205.5134,-507 205.5134,-513 205.5134,-513 205.5134,-525 205.5134,-525 205.5134,-531 199.5134,-537 193.5134,-537"/>
<text text-anchor="middle" x="178.5134" y="-516.6" font-family="Times,serif" font-size="8.00" fill="#ffffff">Plus</text>
</g>
<!-- node17&#45;&gt;node27 -->
<g id="edge26" class="edge">
<title>node17&#45;&gt;node27</title>
<path fill="none" stroke="#000000" d="M172.0396,-740.961C173.2481,-699.5241 176.2304,-597.2769 177.6866,-547.349"/>
<polygon fill="#000000" stroke="#000000" points="181.1881,-547.3462 177.9812,-537.2483 174.191,-547.142 181.1881,-547.3462"/>
<text text-anchor="middle" x="177.5134" y="-636.6" font-family="Times,serif" font-size="8.00" fill="#d3d3d3">b</text>
</g>
<!-- node37 -->
<g id="node38" class="node">
<title>node37</title>
<path fill="#000000" stroke="#000000" d="M264.5134,-697C264.5134,-697 234.5134,-697 234.5134,-697 228.5134,-697 222.5134,-691 222.5134,-685 222.5134,-685 222.5134,-673 222.5134,-673 222.5134,-667 228.5134,-661 234.5134,-661 234.5134,-661 264.5134,-661 264.5134,-661 270.5134,-661 276.5134,-667 276.5134,-673 276.5134,-673 276.5134,-685 276.5134,-685 276.5134,-691 270.5134,-697 264.5134,-697"/>
<text text-anchor="middle" x="249.5134" y="-676.6" font-family="Times,serif" font-size="8.00" fill="#ffffff">Minus</text>
</g>
<!-- node17&#45;&gt;node37 -->
<g id="edge36" class="edge">
<title>node17&#45;&gt;node37</title>
<path fill="none" stroke="#000000" d="M189.2128,-740.8468C199.6843,-730.1068 213.111,-716.3358 224.6356,-704.5157"/>
<polygon fill="#000000" stroke="#000000" points="227.409,-706.6848 231.8841,-697.0814 222.397,-701.7981 227.409,-706.6848"/>
<text text-anchor="middle" x="215.5134" y="-716.6" font-family="Times,serif" font-size="8.00" fill="#d3d3d3">b</text>
</g>
<!-- node18 -->
<g id="node19" class="node">
<title>node18</title>
<path fill="transparent" stroke="#000000" d="M437.1785,-1012C437.1785,-1012 265.8483,-1012 265.8483,-1012 259.8483,-1012 253.8483,-1006 253.8483,-1000 253.8483,-1000 253.8483,-988 253.8483,-988 253.8483,-982 259.8483,-976 265.8483,-976 265.8483,-976 437.1785,-976 437.1785,-976 443.1785,-976 449.1785,-982 449.1785,-988 449.1785,-988 449.1785,-1000 449.1785,-1000 449.1785,-1006 443.1785,-1012 437.1785,-1012"/>
<text text-anchor="middle" x="351.5134" y="-991" font-family="Times,serif" font-size="10.00" fill="#0000ff">drawMargin[year][blackPlayer[year][game]]</text>
</g>
<!-- node19 -->
<g id="node20" class="node">
<title>node19</title>
<path fill="#000000" stroke="#000000" d="M366.5134,-904C366.5134,-904 336.5134,-904 336.5134,-904 330.5134,-904 324.5134,-898 324.5134,-892 324.5134,-892 324.5134,-880 324.5134,-880 324.5134,-874 330.5134,-868 336.5134,-868 336.5134,-868 366.5134,-868 366.5134,-868 372.5134,-868 378.5134,-874 378.5134,-880 378.5134,-880 378.5134,-892 378.5134,-892 378.5134,-898 372.5134,-904 366.5134,-904"/>
<text text-anchor="middle" x="351.5134" y="-883.6" font-family="Times,serif" font-size="8.00" fill="#ffffff">Copy</text>
</g>
<!-- node18&#45;&gt;node19 -->
<g id="edge16" class="edge">
<title>node18&#45;&gt;node19</title>
<path fill="none" stroke="#000000" d="M351.5134,-975.6793C351.5134,-958.821 351.5134,-933.5651 351.5134,-914.147"/>
<polygon fill="#000000" stroke="#000000" points="355.0135,-914.0501 351.5134,-904.0502 348.0135,-914.0502 355.0135,-914.0501"/>
<text text-anchor="middle" x="360.1755" y="-937.6" font-family="Times,serif" font-size="8.00" fill="#d3d3d3">value</text>
</g>
<!-- node20 -->
<g id="node21" class="node">
<title>node20</title>
<path fill="transparent" stroke="#000000" d="M385.4217,-617C385.4217,-617 317.6052,-617 317.6052,-617 311.6052,-617 305.6052,-611 305.6052,-605 305.6052,-605 305.6052,-593 305.6052,-593 305.6052,-587 311.6052,-581 317.6052,-581 317.6052,-581 385.4217,-581 385.4217,-581 391.4217,-581 397.4217,-587 397.4217,-593 397.4217,-593 397.4217,-605 397.4217,-605 397.4217,-611 391.4217,-617 385.4217,-617"/>
<text text-anchor="middle" x="351.5134" y="-596" font-family="Times,serif" font-size="10.00" fill="#0000ff">black_drawMargin</text>
</g>
<!-- node19&#45;&gt;node20 -->
<g id="edge17" class="edge">
<title>node19&#45;&gt;node20</title>
<path fill="none" stroke="#000000" d="M351.5134,-867.9707C351.5134,-849.7057 351.5134,-820.6389 351.5134,-795.5 351.5134,-795.5 351.5134,-795.5 351.5134,-679 351.5134,-661.9004 351.5134,-642.7449 351.5134,-627.4659"/>
<polygon fill="#000000" stroke="#000000" points="355.0135,-627.1103 351.5134,-617.1104 348.0135,-627.1104 355.0135,-627.1103"/>
</g>
<!-- node22 -->
<g id="node23" class="node">
<title>node22</title>
<path fill="#000000" stroke="#000000" d="M327.5134,-537C327.5134,-537 297.5134,-537 297.5134,-537 291.5134,-537 285.5134,-531 285.5134,-525 285.5134,-525 285.5134,-513 285.5134,-513 285.5134,-507 291.5134,-501 297.5134,-501 297.5134,-501 327.5134,-501 327.5134,-501 333.5134,-501 339.5134,-507 339.5134,-513 339.5134,-513 339.5134,-525 339.5134,-525 339.5134,-531 333.5134,-537 327.5134,-537"/>
<text text-anchor="middle" x="312.5134" y="-516.6" font-family="Times,serif" font-size="8.00" fill="#ffffff">IsBetween</text>
</g>
<!-- node20&#45;&gt;node22 -->
<g id="edge20" class="edge">
<title>node20&#45;&gt;node22</title>
<path fill="none" stroke="#000000" d="M326.8466,-580.7053C321.6778,-575.5878 316.9067,-569.5979 313.9626,-563 311.7991,-558.1513 310.703,-552.694 310.2544,-547.3156"/>
<polygon fill="#000000" stroke="#000000" points="313.7528,-547.1881 310.0792,-537.2505 306.7539,-547.31 313.7528,-547.1881"/>
<text text-anchor="middle" x="334.2888" y="-556.6" font-family="Times,serif" font-size="8.00" fill="#d3d3d3">upperBound</text>
</g>
<!-- node25 -->
<g id="node26" class="node">
<title>node25</title>
<path fill="#000000" stroke="#000000" d="M471.5134,-537C471.5134,-537 441.5134,-537 441.5134,-537 435.5134,-537 429.5134,-531 429.5134,-525 429.5134,-525 429.5134,-513 429.5134,-513 429.5134,-507 435.5134,-501 441.5134,-501 441.5134,-501 471.5134,-501 471.5134,-501 477.5134,-501 483.5134,-507 483.5134,-513 483.5134,-513 483.5134,-525 483.5134,-525 483.5134,-531 477.5134,-537 471.5134,-537"/>
<text text-anchor="middle" x="456.5134" y="-516.6" font-family="Times,serif" font-size="8.00" fill="#ffffff">Minus</text>
</g>
<!-- node20&#45;&gt;node25 -->
<g id="edge23" class="edge">
<title>node20&#45;&gt;node25</title>
<path fill="none" stroke="#000000" d="M374.7527,-580.9443C385.068,-572.9601 397.371,-563.4784 408.5134,-555 413.5184,-551.1917 418.8323,-547.1774 424.0312,-543.266"/>
<polygon fill="#000000" stroke="#000000" points="426.15,-546.052 432.0452,-537.2487 421.9469,-540.4542 426.15,-546.052"/>
<text text-anchor="middle" x="410.5134" y="-556.6" font-family="Times,serif" font-size="8.00" fill="#d3d3d3">b</text>
</g>
<!-- node21 -->
<g id="node22" class="node">
<title>node21</title>
<path fill="transparent" stroke="#000000" d="M470.6648,-617C470.6648,-617 432.3621,-617 432.3621,-617 426.3621,-617 420.3621,-611 420.3621,-605 420.3621,-605 420.3621,-593 420.3621,-593 420.3621,-587 426.3621,-581 432.3621,-581 432.3621,-581 470.6648,-581 470.6648,-581 476.6648,-581 482.6648,-587 482.6648,-593 482.6648,-593 482.6648,-605 482.6648,-605 482.6648,-611 476.6648,-617 470.6648,-617"/>
<text text-anchor="middle" x="451.5134" y="-596" font-family="Times,serif" font-size="10.00" fill="#0000ff">white_delta</text>
</g>
<!-- node21&#45;&gt;node22 -->
<g id="edge18" class="edge">
<title>node21&#45;&gt;node22</title>
<path fill="none" stroke="#000000" d="M436.6717,-580.8984C428.7492,-572.1449 418.4008,-562.0371 407.5134,-555 389.766,-543.5288 367.8219,-534.9095 349.4968,-528.9854"/>
<polygon fill="#000000" stroke="#000000" points="350.3258,-525.5783 339.7382,-525.9705 348.2595,-532.2664 350.3258,-525.5783"/>
<text text-anchor="middle" x="419.5134" y="-556.6" font-family="Times,serif" font-size="8.00" fill="#d3d3d3">x</text>
</g>
<!-- node21&#45;&gt;node25 -->
<g id="edge22" class="edge">
<title>node21&#45;&gt;node25</title>
<path fill="none" stroke="#000000" d="M452.648,-580.8468C453.2681,-570.9251 454.0499,-558.4167 454.7479,-547.2492"/>
<polygon fill="#000000" stroke="#000000" points="458.2526,-547.2803 455.3833,-537.0814 451.2663,-546.8436 458.2526,-547.2803"/>
<text text-anchor="middle" x="456.2888" y="-556.6" font-family="Times,serif" font-size="8.00" fill="#d3d3d3">a</text>
</g>
<!-- node21&#45;&gt;node27 -->
<g id="edge25" class="edge">
<title>node21&#45;&gt;node27</title>
<path fill="none" stroke="#000000" d="M419.9907,-582.7179C401.1127,-573.51 376.4072,-562.3953 353.5134,-555 328.3738,-546.8793 259.2065,-533.6262 215.735,-525.6665"/>
<polygon fill="#000000" stroke="#000000" points="216.2764,-522.2076 205.8112,-523.8596 215.0224,-529.0944 216.2764,-522.2076"/>
<text text-anchor="middle" x="378.2888" y="-556.6" font-family="Times,serif" font-size="8.00" fill="#d3d3d3">a</text>
</g>
<!-- node24 -->
<g id="node25" class="node">
<title>node24</title>
<path fill="transparent" stroke="#000000" d="M321.5134,-410C321.5134,-410 291.5134,-410 291.5134,-410 285.5134,-410 279.5134,-404 279.5134,-398 279.5134,-398 279.5134,-386 279.5134,-386 279.5134,-380 285.5134,-374 291.5134,-374 291.5134,-374 321.5134,-374 321.5134,-374 327.5134,-374 333.5134,-380 333.5134,-386 333.5134,-386 333.5134,-398 333.5134,-398 333.5134,-404 327.5134,-410 321.5134,-410"/>
<text text-anchor="middle" x="306.5134" y="-389" font-family="Times,serif" font-size="10.00" fill="#0000ff">vbool7</text>
</g>
<!-- node22&#45;&gt;node24 -->
<g id="edge21" class="edge">
<title>node22&#45;&gt;node24</title>
<path fill="none" stroke="#000000" d="M311.6538,-500.804C310.6602,-479.7735 309.0131,-444.9094 307.8516,-420.3236"/>
<polygon fill="#000000" stroke="#000000" points="311.3396,-419.9859 307.3715,-410.1622 304.3474,-420.3163 311.3396,-419.9859"/>
</g>
<!-- node23 -->
<g id="node24" class="node">
<title>node23</title>
<path fill="transparent" stroke="#000000" d="M266.7306,-617C266.7306,-617 232.2962,-617 232.2962,-617 226.2962,-617 220.2962,-611 220.2962,-605 220.2962,-605 220.2962,-593 220.2962,-593 220.2962,-587 226.2962,-581 232.2962,-581 232.2962,-581 266.7306,-581 266.7306,-581 272.7306,-581 278.7306,-587 278.7306,-593 278.7306,-593 278.7306,-605 278.7306,-605 278.7306,-611 272.7306,-617 266.7306,-617"/>
<text text-anchor="middle" x="249.5134" y="-596" font-family="Times,serif" font-size="10.00" fill="#0000ff">vdouble33</text>
</g>
<!-- node23&#45;&gt;node22 -->
<g id="edge19" class="edge">
<title>node23&#45;&gt;node22</title>
<path fill="none" stroke="#000000" d="M254.8548,-580.809C257.864,-572.4379 262.193,-562.6834 267.9626,-555 270.8699,-551.1285 274.2827,-547.4275 277.9036,-543.9721"/>
<polygon fill="#000000" stroke="#000000" points="280.3447,-546.4861 285.5331,-537.2486 275.7166,-541.2343 280.3447,-546.4861"/>
<text text-anchor="middle" x="288.2888" y="-556.6" font-family="Times,serif" font-size="8.00" fill="#d3d3d3">lowerBound</text>
</g>
<!-- node39 -->
<g id="node40" class="node">
<title>node39</title>
<path fill="#000000" stroke="#000000" d="M320.5134,-196C320.5134,-196 290.5134,-196 290.5134,-196 284.5134,-196 278.5134,-190 278.5134,-184 278.5134,-184 278.5134,-172 278.5134,-172 278.5134,-166 284.5134,-160 290.5134,-160 290.5134,-160 320.5134,-160 320.5134,-160 326.5134,-160 332.5134,-166 332.5134,-172 332.5134,-172 332.5134,-184 332.5134,-184 332.5134,-190 326.5134,-196 320.5134,-196"/>
<text text-anchor="middle" x="305.5134" y="-175.6" font-family="Times,serif" font-size="8.00" fill="#ffffff">Equal</text>
</g>
<!-- node24&#45;&gt;node39 -->
<g id="edge39" class="edge">
<title>node24&#45;&gt;node39</title>
<path fill="none" stroke="#000000" d="M306.4282,-373.7545C306.2536,-336.4035 305.8545,-250.9976 305.6459,-206.3596"/>
<polygon fill="#000000" stroke="#000000" points="309.1453,-206.1828 305.5985,-196.1993 302.1453,-206.2156 309.1453,-206.1828"/>
<text text-anchor="middle" x="309.1814" y="-295.6" font-family="Times,serif" font-size="8.00" fill="#d3d3d3">B</text>
</g>
<!-- node26 -->
<g id="node27" class="node">
<title>node26</title>
<path fill="transparent" stroke="#000000" d="M529.7306,-464C529.7306,-464 495.2962,-464 495.2962,-464 489.2962,-464 483.2962,-458 483.2962,-452 483.2962,-452 483.2962,-440 483.2962,-440 483.2962,-434 489.2962,-428 495.2962,-428 495.2962,-428 529.7306,-428 529.7306,-428 535.7306,-428 541.7306,-434 541.7306,-440 541.7306,-440 541.7306,-452 541.7306,-452 541.7306,-458 535.7306,-464 529.7306,-464"/>
<text text-anchor="middle" x="512.5134" y="-443" font-family="Times,serif" font-size="10.00" fill="#0000ff">vdouble34</text>
</g>
<!-- node25&#45;&gt;node26 -->
<g id="edge24" class="edge">
<title>node25&#45;&gt;node26</title>
<path fill="none" stroke="#000000" d="M470.3561,-500.9551C477.0197,-492.2686 485.1349,-481.6898 492.4593,-472.142"/>
<polygon fill="#000000" stroke="#000000" points="495.3263,-474.155 498.6359,-464.0904 489.7722,-469.8944 495.3263,-474.155"/>
</g>
<!-- node40 -->
<g id="node41" class="node">
<title>node40</title>
<path fill="#000000" stroke="#000000" d="M554.5134,-356C554.5134,-356 524.5134,-356 524.5134,-356 518.5134,-356 512.5134,-350 512.5134,-344 512.5134,-344 512.5134,-332 512.5134,-332 512.5134,-326 518.5134,-320 524.5134,-320 524.5134,-320 554.5134,-320 554.5134,-320 560.5134,-320 566.5134,-326 566.5134,-332 566.5134,-332 566.5134,-344 566.5134,-344 566.5134,-350 560.5134,-356 554.5134,-356"/>
<text text-anchor="middle" x="539.5134" y="-335.6" font-family="Times,serif" font-size="8.00" fill="#ffffff">IsPositive</text>
</g>
<!-- node26&#45;&gt;node40 -->
<g id="edge41" class="edge">
<title>node26&#45;&gt;node40</title>
<path fill="none" stroke="#000000" d="M517.0936,-427.6793C521.3277,-410.7429 527.6807,-385.3311 532.544,-365.8777"/>
<polygon fill="#000000" stroke="#000000" points="535.971,-366.6005 535.0009,-356.0502 529.18,-364.9027 535.971,-366.6005"/>
<text text-anchor="middle" x="532.5134" y="-389.6" font-family="Times,serif" font-size="8.00" fill="#d3d3d3">x</text>
</g>
<!-- node28 -->
<g id="node29" class="node">
<title>node28</title>
<path fill="transparent" stroke="#000000" d="M195.7306,-464C195.7306,-464 161.2962,-464 161.2962,-464 155.2962,-464 149.2962,-458 149.2962,-452 149.2962,-452 149.2962,-440 149.2962,-440 149.2962,-434 155.2962,-428 161.2962,-428 161.2962,-428 195.7306,-428 195.7306,-428 201.7306,-428 207.7306,-434 207.7306,-440 207.7306,-440 207.7306,-452 207.7306,-452 207.7306,-458 201.7306,-464 195.7306,-464"/>
<text text-anchor="middle" x="178.5134" y="-443" font-family="Times,serif" font-size="10.00" fill="#0000ff">vdouble30</text>
</g>
<!-- node27&#45;&gt;node28 -->
<g id="edge27" class="edge">
<title>node27&#45;&gt;node28</title>
<path fill="none" stroke="#000000" d="M178.5134,-500.9551C178.5134,-492.8828 178.5134,-483.1764 178.5134,-474.1817"/>
<polygon fill="#000000" stroke="#000000" points="182.0135,-474.0903 178.5134,-464.0904 175.0135,-474.0904 182.0135,-474.0903"/>
</g>
<!-- node29 -->
<g id="node30" class="node">
<title>node29</title>
<path fill="#000000" stroke="#000000" d="M193.5134,-356C193.5134,-356 163.5134,-356 163.5134,-356 157.5134,-356 151.5134,-350 151.5134,-344 151.5134,-344 151.5134,-332 151.5134,-332 151.5134,-326 157.5134,-320 163.5134,-320 163.5134,-320 193.5134,-320 193.5134,-320 199.5134,-320 205.5134,-326 205.5134,-332 205.5134,-332 205.5134,-344 205.5134,-344 205.5134,-350 199.5134,-356 193.5134,-356"/>
<text text-anchor="middle" x="178.5134" y="-335.6" font-family="Times,serif" font-size="8.00" fill="#ffffff">IsPositive</text>
</g>
<!-- node28&#45;&gt;node29 -->
<g id="edge28" class="edge">
<title>node28&#45;&gt;node29</title>
<path fill="none" stroke="#000000" d="M178.5134,-427.6793C178.5134,-410.821 178.5134,-385.5651 178.5134,-366.147"/>
<polygon fill="#000000" stroke="#000000" points="182.0135,-366.0501 178.5134,-356.0502 175.0135,-366.0502 182.0135,-366.0501"/>
<text text-anchor="middle" x="180.5134" y="-389.6" font-family="Times,serif" font-size="8.00" fill="#d3d3d3">x</text>
</g>
<!-- node30 -->
<g id="node31" class="node">
<title>node30</title>
<path fill="transparent" stroke="#000000" d="M193.5134,-276C193.5134,-276 163.5134,-276 163.5134,-276 157.5134,-276 151.5134,-270 151.5134,-264 151.5134,-264 151.5134,-252 151.5134,-252 151.5134,-246 157.5134,-240 163.5134,-240 163.5134,-240 193.5134,-240 193.5134,-240 199.5134,-240 205.5134,-246 205.5134,-252 205.5134,-252 205.5134,-264 205.5134,-264 205.5134,-270 199.5134,-276 193.5134,-276"/>
<text text-anchor="middle" x="178.5134" y="-255" font-family="Times,serif" font-size="10.00" fill="#0000ff">vbool4</text>
</g>
<!-- node29&#45;&gt;node30 -->
<g id="edge29" class="edge">
<title>node29&#45;&gt;node30</title>
<path fill="none" stroke="#000000" d="M178.5134,-319.8468C178.5134,-309.9251 178.5134,-297.4167 178.5134,-286.2492"/>
<polygon fill="#000000" stroke="#000000" points="182.0135,-286.0814 178.5134,-276.0814 175.0135,-286.0814 182.0135,-286.0814"/>
</g>
<!-- node31 -->
<g id="node32" class="node">
<title>node31</title>
<path fill="#000000" stroke="#000000" d="M232.5134,-196C232.5134,-196 202.5134,-196 202.5134,-196 196.5134,-196 190.5134,-190 190.5134,-184 190.5134,-184 190.5134,-172 190.5134,-172 190.5134,-166 196.5134,-160 202.5134,-160 202.5134,-160 232.5134,-160 232.5134,-160 238.5134,-160 244.5134,-166 244.5134,-172 244.5134,-172 244.5134,-184 244.5134,-184 244.5134,-190 238.5134,-196 232.5134,-196"/>
<text text-anchor="middle" x="217.5134" y="-175.6" font-family="Times,serif" font-size="8.00" fill="#ffffff">Not</text>
</g>
<!-- node30&#45;&gt;node31 -->
<g id="edge30" class="edge">
<title>node30&#45;&gt;node31</title>
<path fill="none" stroke="#000000" d="M187.3631,-239.8468C192.3495,-229.6183 198.6762,-216.6405 204.2451,-205.217"/>
<polygon fill="#000000" stroke="#000000" points="207.4627,-206.6039 208.6987,-196.0814 201.1706,-203.5364 207.4627,-206.6039"/>
<text text-anchor="middle" x="201.5134" y="-215.6" font-family="Times,serif" font-size="8.00" fill="#d3d3d3">b</text>
</g>
<!-- node32 -->
<g id="node33" class="node">
<title>node32</title>
<path fill="transparent" stroke="#000000" d="M249.5134,-116C249.5134,-116 219.5134,-116 219.5134,-116 213.5134,-116 207.5134,-110 207.5134,-104 207.5134,-104 207.5134,-92 207.5134,-92 207.5134,-86 213.5134,-80 219.5134,-80 219.5134,-80 249.5134,-80 249.5134,-80 255.5134,-80 261.5134,-86 261.5134,-92 261.5134,-92 261.5134,-104 261.5134,-104 261.5134,-110 255.5134,-116 249.5134,-116"/>
<text text-anchor="middle" x="234.5134" y="-95" font-family="Times,serif" font-size="10.00" fill="#0000ff">vbool5</text>
</g>
<!-- node31&#45;&gt;node32 -->
<g id="edge31" class="edge">
<title>node31&#45;&gt;node32</title>
<path fill="none" stroke="#000000" d="M221.371,-159.8468C223.5011,-149.8228 226.1923,-137.1585 228.5838,-125.9043"/>
<polygon fill="#000000" stroke="#000000" points="232.016,-126.5905 230.6711,-116.0814 225.1689,-125.1355 232.016,-126.5905"/>
</g>
<!-- node34 -->
<g id="node35" class="node">
<title>node34</title>
<path fill="#000000" stroke="#000000" d="M332.5134,-36C332.5134,-36 302.5134,-36 302.5134,-36 296.5134,-36 290.5134,-30 290.5134,-24 290.5134,-24 290.5134,-12 290.5134,-12 290.5134,-6 296.5134,0 302.5134,0 302.5134,0 332.5134,0 332.5134,0 338.5134,0 344.5134,-6 344.5134,-12 344.5134,-12 344.5134,-24 344.5134,-24 344.5134,-30 338.5134,-36 332.5134,-36"/>
<text text-anchor="middle" x="317.5134" y="-15.6" font-family="Times,serif" font-size="8.00" fill="#ffffff">Equal</text>
</g>
<!-- node32&#45;&gt;node34 -->
<g id="edge33" class="edge">
<title>node32&#45;&gt;node34</title>
<path fill="none" stroke="#000000" d="M253.3474,-79.8468C264.5962,-69.0045 279.0499,-55.0732 291.3907,-43.1785"/>
<polygon fill="#000000" stroke="#000000" points="293.9829,-45.5412 298.754,-36.0814 289.125,-40.5012 293.9829,-45.5412"/>
<text text-anchor="middle" x="281.1814" y="-55.6" font-family="Times,serif" font-size="8.00" fill="#d3d3d3">B</text>
</g>
<!-- node33 -->
<g id="node34" class="node">
<title>node33</title>
<path fill="transparent" stroke="transparent" d="M332.5134,-116C332.5134,-116 302.5134,-116 302.5134,-116 296.5134,-116 290.5134,-110 290.5134,-104 290.5134,-104 290.5134,-92 290.5134,-92 290.5134,-86 296.5134,-80 302.5134,-80 302.5134,-80 332.5134,-80 332.5134,-80 338.5134,-80 344.5134,-86 344.5134,-92 344.5134,-92 344.5134,-104 344.5134,-104 344.5134,-110 338.5134,-116 332.5134,-116"/>
<text text-anchor="middle" x="317.5134" y="-95.3" font-family="Times,serif" font-size="9.00" fill="#000000">True</text>
</g>
<!-- node33&#45;&gt;node34 -->
<g id="edge32" class="edge">
<title>node33&#45;&gt;node34</title>
<path fill="none" stroke="#000000" d="M317.5134,-79.8468C317.5134,-69.9251 317.5134,-57.4167 317.5134,-46.2492"/>
<polygon fill="#000000" stroke="#000000" points="321.0135,-46.0814 317.5134,-36.0814 314.0135,-46.0814 321.0135,-46.0814"/>
<text text-anchor="middle" x="320.4021" y="-55.6" font-family="Times,serif" font-size="8.00" fill="#d3d3d3">A</text>
</g>
<!-- node35 -->
<g id="node36" class="node">
<title>node35</title>
<path fill="transparent" stroke="transparent" d="M415.468,-276C415.468,-276 345.5588,-276 345.5588,-276 339.5588,-276 333.5588,-270 333.5588,-264 333.5588,-264 333.5588,-252 333.5588,-252 333.5588,-246 339.5588,-240 345.5588,-240 345.5588,-240 415.468,-240 415.468,-240 421.468,-240 427.468,-246 427.468,-252 427.468,-252 427.468,-264 427.468,-264 427.468,-270 421.468,-276 415.468,-276"/>
<text text-anchor="middle" x="380.5134" y="-255.3" font-family="Times,serif" font-size="9.00" fill="#000000">outcome[year][game]</text>
</g>
<!-- node35&#45;&gt;node34 -->
<g id="edge34" class="edge">
<title>node35&#45;&gt;node34</title>
<path fill="none" stroke="#000000" d="M379.9851,-239.7776C378.549,-206.9357 373.2231,-136.0208 353.5134,-80 349.2321,-67.8312 342.5169,-55.3536 336.0403,-44.8116"/>
<polygon fill="#000000" stroke="#000000" points="338.8099,-42.6457 330.4772,-36.1022 332.9106,-46.4138 338.8099,-42.6457"/>
<text text-anchor="middle" x="384.6228" y="-135.6" font-family="Times,serif" font-size="8.00" fill="#d3d3d3">condition</text>
</g>
<!-- node35&#45;&gt;node39 -->
<g id="edge40" class="edge">
<title>node35&#45;&gt;node39</title>
<path fill="none" stroke="#000000" d="M357.9513,-239.7129C351.6761,-234.2546 345.0172,-228.0958 339.2947,-222 334.1286,-216.4969 328.9594,-210.2393 324.2733,-204.205"/>
<polygon fill="#000000" stroke="#000000" points="327.05,-202.074 318.2282,-196.2066 321.4655,-206.2947 327.05,-202.074"/>
<text text-anchor="middle" x="354.6228" y="-215.6" font-family="Times,serif" font-size="8.00" fill="#d3d3d3">condition</text>
</g>
<!-- node43 -->
<g id="node44" class="node">
<title>node43</title>
<path fill="#000000" stroke="#000000" d="M487.5134,-196C487.5134,-196 457.5134,-196 457.5134,-196 451.5134,-196 445.5134,-190 445.5134,-184 445.5134,-184 445.5134,-172 445.5134,-172 445.5134,-166 451.5134,-160 457.5134,-160 457.5134,-160 487.5134,-160 487.5134,-160 493.5134,-160 499.5134,-166 499.5134,-172 499.5134,-172 499.5134,-184 499.5134,-184 499.5134,-190 493.5134,-196 487.5134,-196"/>
<text text-anchor="middle" x="472.5134" y="-175.6" font-family="Times,serif" font-size="8.00" fill="#ffffff">Equal</text>
</g>
<!-- node35&#45;&gt;node43 -->
<g id="edge45" class="edge">
<title>node35&#45;&gt;node43</title>
<path fill="none" stroke="#000000" d="M401.3897,-239.8468C413.9758,-228.9023 430.1818,-214.8101 443.9446,-202.8424"/>
<polygon fill="#000000" stroke="#000000" points="446.4704,-205.2843 451.7198,-196.0814 441.8771,-200.0021 446.4704,-205.2843"/>
<text text-anchor="middle" x="444.6228" y="-215.6" font-family="Times,serif" font-size="8.00" fill="#d3d3d3">condition</text>
</g>
<!-- node36 -->
<g id="node37" class="node">
<title>node36</title>
<path fill="transparent" stroke="transparent" d="M277.5134,-777C277.5134,-777 247.5134,-777 247.5134,-777 241.5134,-777 235.5134,-771 235.5134,-765 235.5134,-765 235.5134,-753 235.5134,-753 235.5134,-747 241.5134,-741 247.5134,-741 247.5134,-741 277.5134,-741 277.5134,-741 283.5134,-741 289.5134,-747 289.5134,-753 289.5134,-753 289.5134,-765 289.5134,-765 289.5134,-771 283.5134,-777 277.5134,-777"/>
<text text-anchor="middle" x="262.5134" y="-756.3" font-family="Times,serif" font-size="9.00" fill="#000000">0</text>
</g>
<!-- node36&#45;&gt;node37 -->
<g id="edge35" class="edge">
<title>node36&#45;&gt;node37</title>
<path fill="none" stroke="#000000" d="M259.5635,-740.8468C257.9513,-730.9251 255.9186,-718.4167 254.1039,-707.2492"/>
<polygon fill="#000000" stroke="#000000" points="257.5104,-706.3905 252.4517,-697.0814 250.601,-707.5133 257.5104,-706.3905"/>
<text text-anchor="middle" x="258.2888" y="-716.6" font-family="Times,serif" font-size="8.00" fill="#d3d3d3">a</text>
</g>
<!-- node37&#45;&gt;node23 -->
<g id="edge37" class="edge">
<title>node37&#45;&gt;node23</title>
<path fill="none" stroke="#000000" d="M249.5134,-660.8468C249.5134,-650.9251 249.5134,-638.4167 249.5134,-627.2492"/>
<polygon fill="#000000" stroke="#000000" points="253.0135,-627.0814 249.5134,-617.0814 246.0135,-627.0814 253.0135,-627.0814"/>
</g>
<!-- node38 -->
<g id="node39" class="node">
<title>node38</title>
<path fill="transparent" stroke="transparent" d="M265.5134,-276C265.5134,-276 235.5134,-276 235.5134,-276 229.5134,-276 223.5134,-270 223.5134,-264 223.5134,-264 223.5134,-252 223.5134,-252 223.5134,-246 229.5134,-240 235.5134,-240 235.5134,-240 265.5134,-240 265.5134,-240 271.5134,-240 277.5134,-246 277.5134,-252 277.5134,-252 277.5134,-264 277.5134,-264 277.5134,-270 271.5134,-276 265.5134,-276"/>
<text text-anchor="middle" x="250.5134" y="-255.3" font-family="Times,serif" font-size="9.00" fill="#000000">True</text>
</g>
<!-- node38&#45;&gt;node39 -->
<g id="edge38" class="edge">
<title>node38&#45;&gt;node39</title>
<path fill="none" stroke="#000000" d="M262.9938,-239.8468C270.1665,-229.4137 279.3057,-216.1203 287.2716,-204.5335"/>
<polygon fill="#000000" stroke="#000000" points="290.3013,-206.3047 293.0825,-196.0814 284.533,-202.339 290.3013,-206.3047"/>
<text text-anchor="middle" x="283.4021" y="-215.6" font-family="Times,serif" font-size="8.00" fill="#d3d3d3">A</text>
</g>
<!-- node41 -->
<g id="node42" class="node">
<title>node41</title>
<path fill="transparent" stroke="#000000" d="M559.5134,-276C559.5134,-276 529.5134,-276 529.5134,-276 523.5134,-276 517.5134,-270 517.5134,-264 517.5134,-264 517.5134,-252 517.5134,-252 517.5134,-246 523.5134,-240 529.5134,-240 529.5134,-240 559.5134,-240 559.5134,-240 565.5134,-240 571.5134,-246 571.5134,-252 571.5134,-252 571.5134,-264 571.5134,-264 571.5134,-270 565.5134,-276 559.5134,-276"/>
<text text-anchor="middle" x="544.5134" y="-255" font-family="Times,serif" font-size="10.00" fill="#0000ff">vbool9</text>
</g>
<!-- node40&#45;&gt;node41 -->
<g id="edge42" class="edge">
<title>node40&#45;&gt;node41</title>
<path fill="none" stroke="#000000" d="M540.648,-319.8468C541.2681,-309.9251 542.0499,-297.4167 542.7479,-286.2492"/>
<polygon fill="#000000" stroke="#000000" points="546.2526,-286.2803 543.3833,-276.0814 539.2663,-285.8436 546.2526,-286.2803"/>
</g>
<!-- node41&#45;&gt;node43 -->
<g id="edge44" class="edge">
<title>node41&#45;&gt;node43</title>
<path fill="none" stroke="#000000" d="M528.1755,-239.8468C518.5096,-229.1068 506.1157,-215.3358 495.4776,-203.5157"/>
<polygon fill="#000000" stroke="#000000" points="498.0779,-201.173 488.7867,-196.0814 492.8748,-205.8558 498.0779,-201.173"/>
<text text-anchor="middle" x="514.1814" y="-215.6" font-family="Times,serif" font-size="8.00" fill="#d3d3d3">B</text>
</g>
<!-- node42 -->
<g id="node43" class="node">
<title>node42</title>
<path fill="transparent" stroke="transparent" d="M487.5134,-276C487.5134,-276 457.5134,-276 457.5134,-276 451.5134,-276 445.5134,-270 445.5134,-264 445.5134,-264 445.5134,-252 445.5134,-252 445.5134,-246 451.5134,-240 457.5134,-240 457.5134,-240 487.5134,-240 487.5134,-240 493.5134,-240 499.5134,-246 499.5134,-252 499.5134,-252 499.5134,-264 499.5134,-264 499.5134,-270 493.5134,-276 487.5134,-276"/>
<text text-anchor="middle" x="472.5134" y="-255.3" font-family="Times,serif" font-size="9.00" fill="#000000">True</text>
</g>
<!-- node42&#45;&gt;node43 -->
<g id="edge43" class="edge">
<title>node42&#45;&gt;node43</title>
<path fill="none" stroke="#000000" d="M472.5134,-239.8468C472.5134,-229.9251 472.5134,-217.4167 472.5134,-206.2492"/>
<polygon fill="#000000" stroke="#000000" points="476.0135,-206.0814 472.5134,-196.0814 469.0135,-206.0814 476.0135,-206.0814"/>
<text text-anchor="middle" x="475.4021" y="-215.6" font-family="Times,serif" font-size="8.00" fill="#d3d3d3">A</text>
</g>
<!-- node44 -->
<g id="node45" class="node">
<title>node44</title>
<path fill="transparent" stroke="#000000" d="M661.7306,-777C661.7306,-777 627.2962,-777 627.2962,-777 621.2962,-777 615.2962,-771 615.2962,-765 615.2962,-765 615.2962,-753 615.2962,-753 615.2962,-747 621.2962,-741 627.2962,-741 627.2962,-741 661.7306,-741 661.7306,-741 667.7306,-741 673.7306,-747 673.7306,-753 673.7306,-753 673.7306,-765 673.7306,-765 673.7306,-771 667.7306,-777 661.7306,-777"/>
<text text-anchor="middle" x="644.5134" y="-756" font-family="Times,serif" font-size="10.00" fill="#0000ff">vdouble28</text>
</g>
<!-- node45 -->
<g id="node46" class="node">
<title>node45</title>
<path fill="#000000" stroke="#000000" d="M659.5134,-697C659.5134,-697 629.5134,-697 629.5134,-697 623.5134,-697 617.5134,-691 617.5134,-685 617.5134,-685 617.5134,-673 617.5134,-673 617.5134,-667 623.5134,-661 629.5134,-661 629.5134,-661 659.5134,-661 659.5134,-661 665.5134,-661 671.5134,-667 671.5134,-673 671.5134,-673 671.5134,-685 671.5134,-685 671.5134,-691 665.5134,-697 659.5134,-697"/>
<text text-anchor="middle" x="644.5134" y="-676.6" font-family="Times,serif" font-size="8.00" fill="#ffffff">Plus</text>
</g>
<!-- node44&#45;&gt;node45 -->
<g id="edge46" class="edge">
<title>node44&#45;&gt;node45</title>
<path fill="none" stroke="#000000" d="M644.5134,-740.8468C644.5134,-730.9251 644.5134,-718.4167 644.5134,-707.2492"/>
<polygon fill="#000000" stroke="#000000" points="648.0135,-707.0814 644.5134,-697.0814 641.0135,-707.0814 648.0135,-707.0814"/>
<text text-anchor="middle" x="646.2888" y="-716.6" font-family="Times,serif" font-size="8.00" fill="#d3d3d3">a</text>
</g>
<!-- node45&#45;&gt;node21 -->
<g id="edge48" class="edge">
<title>node45&#45;&gt;node21</title>
<path fill="none" stroke="#000000" d="M617.2706,-667.7076C584.7447,-654.2254 530.0324,-631.5467 492.4201,-615.9561"/>
<polygon fill="#000000" stroke="#000000" points="493.3525,-612.5539 482.7745,-611.9579 490.6721,-619.0204 493.3525,-612.5539"/>
</g>
<!-- node46 -->
<g id="node47" class="node">
<title>node46</title>
<path fill="transparent" stroke="#000000" d="M780.047,-777C780.047,-777 722.9799,-777 722.9799,-777 716.9799,-777 710.9799,-771 710.9799,-765 710.9799,-765 710.9799,-753 710.9799,-753 710.9799,-747 716.9799,-741 722.9799,-741 722.9799,-741 780.047,-741 780.047,-741 786.047,-741 792.047,-747 792.047,-753 792.047,-753 792.047,-765 792.047,-765 792.047,-771 786.047,-777 780.047,-777"/>
<text text-anchor="middle" x="751.5134" y="-756" font-family="Times,serif" font-size="10.00" fill="#0000ff">whiteAdvantage</text>
</g>
<!-- node46&#45;&gt;node45 -->
<g id="edge47" class="edge">
<title>node46&#45;&gt;node45</title>
<path fill="none" stroke="#000000" d="M727.2335,-740.8468C712.3216,-729.6977 693.0409,-715.2822 676.8456,-703.1736"/>
<polygon fill="#000000" stroke="#000000" points="678.8021,-700.2663 668.6973,-697.0814 674.6105,-705.8726 678.8021,-700.2663"/>
<text text-anchor="middle" x="702.5134" y="-716.6" font-family="Times,serif" font-size="8.00" fill="#d3d3d3">b</text>
</g>
<!-- node47 -->
<g id="node48" class="node">
<title>node47</title>
<path fill="transparent" stroke="transparent" d="M860.5731,-958C860.5731,-958 798.4537,-958 798.4537,-958 792.4537,-958 786.4537,-952 786.4537,-946 786.4537,-946 786.4537,-934 786.4537,-934 786.4537,-928 792.4537,-922 798.4537,-922 798.4537,-922 860.5731,-922 860.5731,-922 866.5731,-922 872.5731,-928 872.5731,-934 872.5731,-934 872.5731,-946 872.5731,-946 872.5731,-952 866.5731,-958 860.5731,-958"/>
<text text-anchor="middle" x="829.5134" y="-937.3" font-family="Times,serif" font-size="9.00" fill="#000000">Gaussian(0, 4e+04)</text>
</g>
<!-- node48 -->
<g id="node49" class="node">
<title>node48</title>
<path fill="#000000" stroke="#000000" d="M824.5134,-850C824.5134,-850 794.5134,-850 794.5134,-850 788.5134,-850 782.5134,-844 782.5134,-838 782.5134,-838 782.5134,-826 782.5134,-826 782.5134,-820 788.5134,-814 794.5134,-814 794.5134,-814 824.5134,-814 824.5134,-814 830.5134,-814 836.5134,-820 836.5134,-826 836.5134,-826 836.5134,-838 836.5134,-838 836.5134,-844 830.5134,-850 824.5134,-850"/>
<text text-anchor="middle" x="809.5134" y="-829.6" font-family="Times,serif" font-size="8.00" fill="#ffffff">Random</text>
</g>
<!-- node47&#45;&gt;node48 -->
<g id="edge49" class="edge">
<title>node47&#45;&gt;node48</title>
<path fill="none" stroke="#000000" d="M826.1207,-921.6793C822.9988,-904.821 818.3218,-879.5651 814.7258,-860.147"/>
<polygon fill="#000000" stroke="#000000" points="818.1185,-859.2456 812.8561,-850.0502 811.2355,-860.5203 818.1185,-859.2456"/>
<text text-anchor="middle" x="827.2927" y="-883.6" font-family="Times,serif" font-size="8.00" fill="#d3d3d3">dist</text>
</g>
<!-- node48&#45;&gt;node46 -->
<g id="edge50" class="edge">
<title>node48&#45;&gt;node46</title>
<path fill="none" stroke="#000000" d="M795.1763,-813.9551C788.2748,-805.2686 779.8697,-794.6898 772.2838,-785.142"/>
<polygon fill="#000000" stroke="#000000" points="774.8477,-782.7427 765.8866,-777.0904 769.367,-787.0972 774.8477,-782.7427"/>
</g>
<!-- node49&#45;&gt;node44 -->
<g id="edge53" class="edge">
<title>node49&#45;&gt;node44</title>
<path fill="none" stroke="#000000" d="M644.5134,-813.9551C644.5134,-805.8828 644.5134,-796.1764 644.5134,-787.1817"/>
<polygon fill="#000000" stroke="#000000" points="648.0135,-787.0903 644.5134,-777.0904 641.0135,-787.0904 648.0135,-787.0903"/>
</g>
<!-- node50 -->
<g id="node51" class="node">
<title>node50</title>
<path fill="transparent" stroke="transparent" d="M237.0148,-1407C237.0148,-1407 168.0121,-1407 168.0121,-1407 162.0121,-1407 156.0121,-1401 156.0121,-1395 156.0121,-1395 156.0121,-1383 156.0121,-1383 156.0121,-1377 162.0121,-1371 168.0121,-1371 168.0121,-1371 237.0148,-1371 237.0148,-1371 243.0148,-1371 249.0148,-1377 249.0148,-1383 249.0148,-1383 249.0148,-1395 249.0148,-1395 249.0148,-1401 243.0148,-1407 237.0148,-1407"/>
<text text-anchor="middle" x="202.5134" y="-1386" font-family="Times,serif" font-size="10.00" fill="#0000ff">1354.32734945844</text>
</g>
<!-- node51 -->
<g id="node52" class="node">
<title>node51</title>
<path fill="#000000" stroke="#000000" d="M142.5134,-1327C142.5134,-1327 112.5134,-1327 112.5134,-1327 106.5134,-1327 100.5134,-1321 100.5134,-1315 100.5134,-1315 100.5134,-1303 100.5134,-1303 100.5134,-1297 106.5134,-1291 112.5134,-1291 112.5134,-1291 142.5134,-1291 142.5134,-1291 148.5134,-1291 154.5134,-1297 154.5134,-1303 154.5134,-1303 154.5134,-1315 154.5134,-1315 154.5134,-1321 148.5134,-1327 142.5134,-1327"/>
<text text-anchor="middle" x="127.5134" y="-1306.6" font-family="Times,serif" font-size="8.00" fill="#ffffff">Gaussian</text>
</g>
<!-- node50&#45;&gt;node51 -->
<g id="edge54" class="edge">
<title>node50&#45;&gt;node51</title>
<path fill="none" stroke="#000000" d="M185.4948,-1370.8468C175.4261,-1360.1068 162.5158,-1346.3358 151.4344,-1334.5157"/>
<polygon fill="#000000" stroke="#000000" points="153.8576,-1331.983 144.4647,-1327.0814 148.7508,-1336.7706 153.8576,-1331.983"/>
<text text-anchor="middle" x="176.1755" y="-1346.6" font-family="Times,serif" font-size="8.00" fill="#d3d3d3">mean</text>
</g>
<!-- node55 -->
<g id="node56" class="node">
<title>node55</title>
<path fill="#000000" stroke="#000000" d="M214.5134,-1327C214.5134,-1327 184.5134,-1327 184.5134,-1327 178.5134,-1327 172.5134,-1321 172.5134,-1315 172.5134,-1315 172.5134,-1303 172.5134,-1303 172.5134,-1297 178.5134,-1291 184.5134,-1291 184.5134,-1291 214.5134,-1291 214.5134,-1291 220.5134,-1291 226.5134,-1297 226.5134,-1303 226.5134,-1303 226.5134,-1315 226.5134,-1315 226.5134,-1321 220.5134,-1327 214.5134,-1327"/>
<text text-anchor="middle" x="199.5134" y="-1306.6" font-family="Times,serif" font-size="8.00" fill="#ffffff">Gaussian</text>
</g>
<!-- node50&#45;&gt;node55 -->
<g id="edge58" class="edge">
<title>node50&#45;&gt;node55</title>
<path fill="none" stroke="#000000" d="M201.8327,-1370.8468C201.4606,-1360.9251 200.9916,-1348.4167 200.5728,-1337.2492"/>
<polygon fill="#000000" stroke="#000000" points="204.0639,-1336.9432 200.1915,-1327.0814 197.0688,-1337.2056 204.0639,-1336.9432"/>
<text text-anchor="middle" x="210.1755" y="-1346.6" font-family="Times,serif" font-size="8.00" fill="#d3d3d3">mean</text>
</g>
<!-- node51&#45;&gt;node53 -->
<g id="edge56" class="edge">
<title>node51&#45;&gt;node53</title>
<path fill="none" stroke="#000000" d="M154.6303,-1292.8108C174.1225,-1281.1737 200.6956,-1265.3091 222.469,-1252.3101"/>
<polygon fill="#000000" stroke="#000000" points="224.3722,-1255.2502 231.1643,-1247.1189 220.7839,-1249.2398 224.3722,-1255.2502"/>
</g>
<!-- node52 -->
<g id="node53" class="node">
<title>node52</title>
<path fill="transparent" stroke="transparent" d="M109.9519,-1407C109.9519,-1407 21.0749,-1407 21.0749,-1407 15.0749,-1407 9.0749,-1401 9.0749,-1395 9.0749,-1395 9.0749,-1383 9.0749,-1383 9.0749,-1377 15.0749,-1371 21.0749,-1371 21.0749,-1371 109.9519,-1371 109.9519,-1371 115.9519,-1371 121.9519,-1377 121.9519,-1383 121.9519,-1383 121.9519,-1395 121.9519,-1395 121.9519,-1401 115.9519,-1407 109.9519,-1407"/>
<text text-anchor="middle" x="65.5134" y="-1386" font-family="Times,serif" font-size="10.00" fill="#0000ff">1.42236958506088E&#45;05</text>
</g>
<!-- node52&#45;&gt;node51 -->
<g id="edge55" class="edge">
<title>node52&#45;&gt;node51</title>
<path fill="none" stroke="#000000" d="M59.5632,-1370.7801C57.9284,-1362.4027 57.6696,-1352.6512 62.1892,-1345 68.6722,-1334.0249 79.8282,-1326.1673 91.1048,-1320.6524"/>
<polygon fill="#000000" stroke="#000000" points="92.7376,-1323.7588 100.5056,-1316.5539 89.9401,-1317.3421 92.7376,-1323.7588"/>
<text text-anchor="middle" x="77.1755" y="-1346.6" font-family="Times,serif" font-size="8.00" fill="#d3d3d3">precision</text>
</g>
<!-- node52&#45;&gt;node55 -->
<g id="edge59" class="edge">
<title>node52&#45;&gt;node55</title>
<path fill="none" stroke="#000000" d="M90.5567,-1370.9453C102.3659,-1362.6973 116.7793,-1353.0052 130.1892,-1345 136.4809,-1341.2441 149.8134,-1334.2445 163.1215,-1327.4088"/>
<polygon fill="#000000" stroke="#000000" points="164.9338,-1330.4132 172.2441,-1322.7445 161.747,-1324.1806 164.9338,-1330.4132"/>
<text text-anchor="middle" x="145.1755" y="-1346.6" font-family="Times,serif" font-size="8.00" fill="#d3d3d3">precision</text>
</g>
<!-- node53&#45;&gt;node15 -->
<g id="edge99" class="edge">
<title>node53&#45;&gt;node15</title>
<path fill="none" stroke="#000000" d="M201.1823,-1212.1927C181.5231,-1203.8047 161.4506,-1191.5691 148.5134,-1174 137.0417,-1158.4211 135.3532,-1135.7459 135.8514,-1120.0215"/>
</g>
<!-- node53&#45;&gt;node18 -->
<g id="edge100" class="edge">
<title>node53&#45;&gt;node18</title>
<path fill="none" stroke="#000000" d="M285.1631,-1210.7773C295.7013,-1201.1363 306.97,-1188.3312 312.5134,-1174 334.4882,-1117.1894 345.3544,-1045.2548 349.4763,-1012.1636"/>
</g>
<!-- node56 -->
<g id="node57" class="node">
<title>node56</title>
<path fill="transparent" stroke="#000000" d="M273.7627,-1174C273.7627,-1174 169.2642,-1174 169.2642,-1174 163.2642,-1174 157.2642,-1168 157.2642,-1162 157.2642,-1162 157.2642,-1150 157.2642,-1150 157.2642,-1144 163.2642,-1138 169.2642,-1138 169.2642,-1138 273.7627,-1138 273.7627,-1138 279.7627,-1138 285.7627,-1144 285.7627,-1150 285.7627,-1150 285.7627,-1162 285.7627,-1162 285.7627,-1168 279.7627,-1174 273.7627,-1174"/>
<text text-anchor="middle" x="221.5134" y="-1153" font-family="Times,serif" font-size="10.00" fill="#0000ff">drawMargin[vint11][player]</text>
</g>
<!-- node53&#45;&gt;node56 -->
<g id="edge101" class="edge">
<title>node53&#45;&gt;node56</title>
<path fill="none" stroke="#000000" d="M251.6258,-1210.9551C245.4719,-1199.7241 237.5845,-1185.3298 231.426,-1174.0904"/>
</g>
<!-- node54 -->
<g id="node55" class="node">
<title>node54</title>
<path fill="transparent" stroke="#000000" d="M575.5134,-1327C575.5134,-1327 545.5134,-1327 545.5134,-1327 539.5134,-1327 533.5134,-1321 533.5134,-1315 533.5134,-1315 533.5134,-1303 533.5134,-1303 533.5134,-1297 539.5134,-1291 545.5134,-1291 545.5134,-1291 575.5134,-1291 575.5134,-1291 581.5134,-1291 587.5134,-1297 587.5134,-1303 587.5134,-1303 587.5134,-1315 587.5134,-1315 587.5134,-1321 581.5134,-1327 575.5134,-1327"/>
<text text-anchor="middle" x="560.5134" y="-1306" font-family="Times,serif" font-size="10.00" fill="#0000ff">vbool0</text>
</g>
<!-- node54&#45;&gt;node3 -->
<g id="edge84" class="edge">
<title>node54&#45;&gt;node3</title>
<path fill="none" stroke="#000000" d="M577.9287,-1290.9499C585.6659,-1282.9666 594.9034,-1273.4842 603.2947,-1265 606.7002,-1261.5567 610.3015,-1257.9438 613.8599,-1254.3904"/>
<polygon fill="#000000" stroke="#000000" points="616.4107,-1256.7897 621.0273,-1247.2536 611.4715,-1251.8293 616.4107,-1256.7897"/>
<text text-anchor="middle" x="618.6228" y="-1266.6" font-family="Times,serif" font-size="8.00" fill="#d3d3d3">condition</text>
</g>
<!-- node54&#45;&gt;node53 -->
<g id="edge57" class="edge">
<title>node54&#45;&gt;node53</title>
<path fill="none" stroke="#000000" d="M548.2947,-1290.5765C541.082,-1281.2803 531.1005,-1270.7765 519.5134,-1265 450.7258,-1230.707 423.4503,-1258.8886 347.5134,-1247 342.4625,-1246.2092 337.26,-1245.317 332.0322,-1244.3634"/>
<polygon fill="#000000" stroke="#000000" points="332.457,-1240.8818 321.981,-1242.4645 331.1575,-1247.7601 332.457,-1240.8818"/>
<text text-anchor="middle" x="545.6228" y="-1266.6" font-family="Times,serif" font-size="8.00" fill="#d3d3d3">condition</text>
</g>
<!-- node55&#45;&gt;node53 -->
<g id="edge60" class="edge">
<title>node55&#45;&gt;node53</title>
<path fill="none" stroke="#000000" d="M213.5822,-1290.8468C221.7471,-1280.3114 232.1724,-1266.8593 241.2137,-1255.1932"/>
<polygon fill="#000000" stroke="#000000" points="244.141,-1257.1296 247.5003,-1247.0814 238.6081,-1252.8416 244.141,-1257.1296"/>
</g>
<!-- node57 -->
<g id="node58" class="node">
<title>node57</title>
<path fill="#000000" stroke="#000000" d="M311.5134,-1066C311.5134,-1066 281.5134,-1066 281.5134,-1066 275.5134,-1066 269.5134,-1060 269.5134,-1054 269.5134,-1054 269.5134,-1042 269.5134,-1042 269.5134,-1036 275.5134,-1030 281.5134,-1030 281.5134,-1030 311.5134,-1030 311.5134,-1030 317.5134,-1030 323.5134,-1036 323.5134,-1042 323.5134,-1042 323.5134,-1054 323.5134,-1054 323.5134,-1060 317.5134,-1066 311.5134,-1066"/>
<text text-anchor="middle" x="296.5134" y="-1045.6" font-family="Times,serif" font-size="8.00" fill="#ffffff">Gaussian</text>
</g>
<!-- node56&#45;&gt;node57 -->
<g id="edge63" class="edge">
<title>node56&#45;&gt;node57</title>
<path fill="none" stroke="#000000" d="M234.2362,-1137.6793C246.3227,-1120.2746 264.625,-1093.9193 278.2648,-1074.278"/>
<polygon fill="#000000" stroke="#000000" points="281.1494,-1076.2603 283.9786,-1066.0502 275.3998,-1072.2675 281.1494,-1076.2603"/>
<text text-anchor="middle" x="279.1755" y="-1099.6" font-family="Times,serif" font-size="8.00" fill="#d3d3d3">mean</text>
</g>
<!-- node57&#45;&gt;node53 -->
<g id="edge65" class="edge">
<title>node57&#45;&gt;node53</title>
<path fill="none" stroke="#000000" d="M299.1469,-1066.3765C302.0665,-1091.3047 305.0858,-1136.975 294.5134,-1174 291.6996,-1183.8543 286.644,-1193.7315 281.3221,-1202.3416"/>
<polygon fill="#000000" stroke="#000000" points="278.3296,-1200.5223 275.7626,-1210.8014 284.1795,-1204.3666 278.3296,-1200.5223"/>
</g>
<!-- node58 -->
<g id="node59" class="node">
<title>node58</title>
<path fill="transparent" stroke="transparent" d="M471.1473,-1174C471.1473,-1174 391.8796,-1174 391.8796,-1174 385.8796,-1174 379.8796,-1168 379.8796,-1162 379.8796,-1162 379.8796,-1150 379.8796,-1150 379.8796,-1144 385.8796,-1138 391.8796,-1138 391.8796,-1138 471.1473,-1138 471.1473,-1138 477.1473,-1138 483.1473,-1144 483.1473,-1150 483.1473,-1150 483.1473,-1162 483.1473,-1162 483.1473,-1168 477.1473,-1174 471.1473,-1174"/>
<text text-anchor="middle" x="431.5134" y="-1153" font-family="Times,serif" font-size="10.00" fill="#0000ff">0.0110949723256882</text>
</g>
<!-- node58&#45;&gt;node57 -->
<g id="edge64" class="edge">
<title>node58&#45;&gt;node57</title>
<path fill="none" stroke="#000000" d="M408.9175,-1137.9232C386.5282,-1120.0118 352.0761,-1092.4501 327.2152,-1072.5614"/>
<polygon fill="#000000" stroke="#000000" points="329.1783,-1069.6497 319.1831,-1066.1357 324.8054,-1075.1158 329.1783,-1069.6497"/>
<text text-anchor="middle" x="399.1755" y="-1099.6" font-family="Times,serif" font-size="8.00" fill="#d3d3d3">precision</text>
</g>
<!-- node59 -->
<g id="node60" class="node">
<title>node59</title>
<path fill="transparent" stroke="#000000" d="M320.5134,-1487C320.5134,-1487 290.5134,-1487 290.5134,-1487 284.5134,-1487 278.5134,-1481 278.5134,-1475 278.5134,-1475 278.5134,-1463 278.5134,-1463 278.5134,-1457 284.5134,-1451 290.5134,-1451 290.5134,-1451 320.5134,-1451 320.5134,-1451 326.5134,-1451 332.5134,-1457 332.5134,-1463 332.5134,-1463 332.5134,-1475 332.5134,-1475 332.5134,-1481 326.5134,-1487 320.5134,-1487"/>
<text text-anchor="middle" x="305.5134" y="-1466" font-family="Times,serif" font-size="10.00" fill="#0000ff">vbool2</text>
</g>
<!-- node60 -->
<g id="node61" class="node">
<title>node60</title>
<path fill="#000000" stroke="#000000" d="M336.5134,-1407C336.5134,-1407 306.5134,-1407 306.5134,-1407 300.5134,-1407 294.5134,-1401 294.5134,-1395 294.5134,-1395 294.5134,-1383 294.5134,-1383 294.5134,-1377 300.5134,-1371 306.5134,-1371 306.5134,-1371 336.5134,-1371 336.5134,-1371 342.5134,-1371 348.5134,-1377 348.5134,-1383 348.5134,-1383 348.5134,-1395 348.5134,-1395 348.5134,-1401 342.5134,-1407 336.5134,-1407"/>
<text text-anchor="middle" x="321.5134" y="-1386.6" font-family="Times,serif" font-size="8.00" fill="#ffffff">Not</text>
</g>
<!-- node59&#45;&gt;node60 -->
<g id="edge66" class="edge">
<title>node59&#45;&gt;node60</title>
<path fill="none" stroke="#000000" d="M309.1441,-1450.8468C311.1489,-1440.8228 313.6817,-1428.1585 315.9326,-1416.9043"/>
<polygon fill="#000000" stroke="#000000" points="319.3679,-1417.5736 317.8971,-1407.0814 312.5039,-1416.2008 319.3679,-1417.5736"/>
<text text-anchor="middle" x="316.5134" y="-1426.6" font-family="Times,serif" font-size="8.00" fill="#d3d3d3">b</text>
</g>
<!-- node60&#45;&gt;node5 -->
<g id="edge67" class="edge">
<title>node60&#45;&gt;node5</title>
<path fill="none" stroke="#000000" d="M342.3897,-1370.8468C354.9758,-1359.9023 371.1818,-1345.8101 384.9446,-1333.8424"/>
<polygon fill="#000000" stroke="#000000" points="387.4704,-1336.2843 392.7198,-1327.0814 382.8771,-1331.0021 387.4704,-1336.2843"/>
</g>
<!-- node61 -->
<g id="node62" class="node">
<title>node61</title>
<path fill="transparent" stroke="transparent" d="M854.8222,-1407C854.8222,-1407 772.2047,-1407 772.2047,-1407 766.2047,-1407 760.2047,-1401 760.2047,-1395 760.2047,-1395 760.2047,-1383 760.2047,-1383 760.2047,-1377 766.2047,-1371 772.2047,-1371 772.2047,-1371 854.8222,-1371 854.8222,-1371 860.8222,-1371 866.8222,-1377 866.8222,-1383 866.8222,-1383 866.8222,-1395 866.8222,-1395 866.8222,-1401 860.8222,-1407 854.8222,-1407"/>
<text text-anchor="middle" x="813.5134" y="-1386.3" font-family="Times,serif" font-size="9.00" fill="#000000">Gaussian(1200, 6.4e+05)</text>
</g>
<!-- node62 -->
<g id="node63" class="node">
<title>node62</title>
<path fill="#000000" stroke="#000000" d="M760.5134,-1327C760.5134,-1327 730.5134,-1327 730.5134,-1327 724.5134,-1327 718.5134,-1321 718.5134,-1315 718.5134,-1315 718.5134,-1303 718.5134,-1303 718.5134,-1297 724.5134,-1291 730.5134,-1291 730.5134,-1291 760.5134,-1291 760.5134,-1291 766.5134,-1291 772.5134,-1297 772.5134,-1303 772.5134,-1303 772.5134,-1315 772.5134,-1315 772.5134,-1321 766.5134,-1327 760.5134,-1327"/>
<text text-anchor="middle" x="745.5134" y="-1306.6" font-family="Times,serif" font-size="8.00" fill="#ffffff">Random</text>
</g>
<!-- node61&#45;&gt;node62 -->
<g id="edge68" class="edge">
<title>node61&#45;&gt;node62</title>
<path fill="none" stroke="#000000" d="M798.0832,-1370.8468C789.0412,-1360.2091 777.4716,-1346.5978 767.4893,-1334.854"/>
<polygon fill="#000000" stroke="#000000" points="770.0259,-1332.434 760.8826,-1327.0814 764.6923,-1336.9676 770.0259,-1332.434"/>
<text text-anchor="middle" x="787.2927" y="-1346.6" font-family="Times,serif" font-size="8.00" fill="#d3d3d3">dist</text>
</g>
<!-- node62&#45;&gt;node3 -->
<g id="edge69" class="edge">
<title>node62&#45;&gt;node3</title>
<path fill="none" stroke="#000000" d="M730.7023,-1290.6057C723.3706,-1282.1901 714.0576,-1272.4569 704.5134,-1265 698.7129,-1260.4681 692.2688,-1256.1678 685.7561,-1252.2211"/>
<polygon fill="#000000" stroke="#000000" points="687.292,-1249.0657 676.8868,-1247.0699 683.7764,-1255.1188 687.292,-1249.0657"/>
</g>
<!-- node63 -->
<g id="node64" class="node">
<title>node63</title>
<path fill="transparent" stroke="#000000" d="M485.5134,-1647C485.5134,-1647 455.5134,-1647 455.5134,-1647 449.5134,-1647 443.5134,-1641 443.5134,-1635 443.5134,-1635 443.5134,-1623 443.5134,-1623 443.5134,-1617 449.5134,-1611 455.5134,-1611 455.5134,-1611 485.5134,-1611 485.5134,-1611 491.5134,-1611 497.5134,-1617 497.5134,-1623 497.5134,-1623 497.5134,-1635 497.5134,-1635 497.5134,-1641 491.5134,-1647 485.5134,-1647"/>
<text text-anchor="middle" x="470.5134" y="-1626" font-family="Times,serif" font-size="10.00" fill="#0000ff">year</text>
</g>
<!-- node64 -->
<g id="node65" class="node">
<title>node64</title>
<path fill="#000000" stroke="#000000" d="M540.5134,-1567C540.5134,-1567 510.5134,-1567 510.5134,-1567 504.5134,-1567 498.5134,-1561 498.5134,-1555 498.5134,-1555 498.5134,-1543 498.5134,-1543 498.5134,-1537 504.5134,-1531 510.5134,-1531 510.5134,-1531 540.5134,-1531 540.5134,-1531 546.5134,-1531 552.5134,-1537 552.5134,-1543 552.5134,-1543 552.5134,-1555 552.5134,-1555 552.5134,-1561 546.5134,-1567 540.5134,-1567"/>
<text text-anchor="middle" x="525.5134" y="-1546.6" font-family="Times,serif" font-size="8.00" fill="#ffffff">Minus</text>
</g>
<!-- node63&#45;&gt;node64 -->
<g id="edge70" class="edge">
<title>node63&#45;&gt;node64</title>
<path fill="none" stroke="#000000" d="M482.9938,-1610.8468C490.1665,-1600.4137 499.3057,-1587.1203 507.2716,-1575.5335"/>
<polygon fill="#000000" stroke="#000000" points="510.3013,-1577.3047 513.0825,-1567.0814 504.533,-1573.339 510.3013,-1577.3047"/>
<text text-anchor="middle" x="502.2888" y="-1586.6" font-family="Times,serif" font-size="8.00" fill="#d3d3d3">a</text>
</g>
<!-- node67 -->
<g id="node68" class="node">
<title>node67</title>
<path fill="#000000" stroke="#000000" d="M798.5134,-1567C798.5134,-1567 768.5134,-1567 768.5134,-1567 762.5134,-1567 756.5134,-1561 756.5134,-1555 756.5134,-1555 756.5134,-1543 756.5134,-1543 756.5134,-1537 762.5134,-1531 768.5134,-1531 768.5134,-1531 798.5134,-1531 798.5134,-1531 804.5134,-1531 810.5134,-1537 810.5134,-1543 810.5134,-1543 810.5134,-1555 810.5134,-1555 810.5134,-1561 804.5134,-1567 798.5134,-1567"/>
<text text-anchor="middle" x="783.5134" y="-1546.6" font-family="Times,serif" font-size="8.00" fill="#ffffff">Minus</text>
</g>
<!-- node63&#45;&gt;node67 -->
<g id="edge73" class="edge">
<title>node63&#45;&gt;node67</title>
<path fill="none" stroke="#000000" d="M491.7798,-1610.9195C504.1442,-1601.4814 520.4987,-1590.7329 536.9626,-1585 622.7137,-1555.1406 654.9577,-1589.9855 746.754,-1566.5038"/>
<polygon fill="#000000" stroke="#000000" points="747.6961,-1569.8748 756.4271,-1563.8731 745.8591,-1563.1202 747.6961,-1569.8748"/>
<text text-anchor="middle" x="539.2888" y="-1586.6" font-family="Times,serif" font-size="8.00" fill="#d3d3d3">a</text>
</g>
<!-- node70 -->
<g id="node71" class="node">
<title>node70</title>
<path fill="#000000" stroke="#000000" d="M422.933,-1407C422.933,-1407 390.0939,-1407 390.0939,-1407 384.0939,-1407 378.0939,-1401 378.0939,-1395 378.0939,-1395 378.0939,-1383 378.0939,-1383 378.0939,-1377 384.0939,-1371 390.0939,-1371 390.0939,-1371 422.933,-1371 422.933,-1371 428.933,-1371 434.933,-1377 434.933,-1383 434.933,-1383 434.933,-1395 434.933,-1395 434.933,-1401 428.933,-1407 422.933,-1407"/>
<text text-anchor="middle" x="406.5134" y="-1386.6" font-family="Times,serif" font-size="8.00" fill="#ffffff">GreaterThan</text>
</g>
<!-- node63&#45;&gt;node70 -->
<g id="edge76" class="edge">
<title>node63&#45;&gt;node70</title>
<path fill="none" stroke="#000000" d="M454.0264,-1610.9873C432.0073,-1585.579 394.0827,-1536.7368 379.5134,-1487 372.5214,-1463.1306 381.4116,-1435.8403 390.8157,-1416.1303"/>
<polygon fill="#000000" stroke="#000000" points="393.9892,-1417.6113 395.4062,-1407.1116 387.7508,-1414.4359 393.9892,-1417.6113"/>
<text text-anchor="middle" x="391.2888" y="-1506.6" font-family="Times,serif" font-size="8.00" fill="#d3d3d3">a</text>
</g>
<!-- node72 -->
<g id="node73" class="node">
<title>node72</title>
<path fill="#000000" stroke="#000000" d="M320.933,-1567C320.933,-1567 288.0939,-1567 288.0939,-1567 282.0939,-1567 276.0939,-1561 276.0939,-1555 276.0939,-1555 276.0939,-1543 276.0939,-1543 276.0939,-1537 282.0939,-1531 288.0939,-1531 288.0939,-1531 320.933,-1531 320.933,-1531 326.933,-1531 332.933,-1537 332.933,-1543 332.933,-1543 332.933,-1555 332.933,-1555 332.933,-1561 326.933,-1567 320.933,-1567"/>
<text text-anchor="middle" x="304.5134" y="-1546.6" font-family="Times,serif" font-size="8.00" fill="#ffffff">GreaterThan</text>
</g>
<!-- node63&#45;&gt;node72 -->
<g id="edge79" class="edge">
<title>node63&#45;&gt;node72</title>
<path fill="none" stroke="#000000" d="M443.2827,-1625.91C416.1242,-1621.8192 374.0787,-1612.6756 342.9626,-1593 335.6076,-1588.3492 328.8646,-1581.8749 323.1492,-1575.3213"/>
<polygon fill="#000000" stroke="#000000" points="325.5073,-1572.6722 316.4907,-1567.1089 320.07,-1577.0808 325.5073,-1572.6722"/>
<text text-anchor="middle" x="345.2888" y="-1586.6" font-family="Times,serif" font-size="8.00" fill="#d3d3d3">a</text>
</g>
<!-- node76 -->
<g id="node77" class="node">
<title>node76</title>
<path fill="#000000" stroke="#000000" d="M494.5134,-1407C494.5134,-1407 464.5134,-1407 464.5134,-1407 458.5134,-1407 452.5134,-1401 452.5134,-1395 452.5134,-1395 452.5134,-1383 452.5134,-1383 452.5134,-1377 458.5134,-1371 464.5134,-1371 464.5134,-1371 494.5134,-1371 494.5134,-1371 500.5134,-1371 506.5134,-1377 506.5134,-1383 506.5134,-1383 506.5134,-1395 506.5134,-1395 506.5134,-1401 500.5134,-1407 494.5134,-1407"/>
<text text-anchor="middle" x="479.5134" y="-1386.6" font-family="Times,serif" font-size="8.00" fill="#ffffff">Equal</text>
</g>
<!-- node63&#45;&gt;node76 -->
<g id="edge85" class="edge">
<title>node63&#45;&gt;node76</title>
<path fill="none" stroke="#000000" d="M471.1899,-1610.961C472.7438,-1569.5241 476.578,-1467.2769 478.4503,-1417.349"/>
<polygon fill="#000000" stroke="#000000" points="481.9518,-1417.3725 478.8291,-1407.2483 474.9567,-1417.1101 481.9518,-1417.3725"/>
<text text-anchor="middle" x="477.2888" y="-1506.6" font-family="Times,serif" font-size="8.00" fill="#d3d3d3">a</text>
</g>
<!-- node66 -->
<g id="node67" class="node">
<title>node66</title>
<path fill="transparent" stroke="#000000" d="M540.5134,-1487C540.5134,-1487 510.5134,-1487 510.5134,-1487 504.5134,-1487 498.5134,-1481 498.5134,-1475 498.5134,-1475 498.5134,-1463 498.5134,-1463 498.5134,-1457 504.5134,-1451 510.5134,-1451 510.5134,-1451 540.5134,-1451 540.5134,-1451 546.5134,-1451 552.5134,-1457 552.5134,-1463 552.5134,-1463 552.5134,-1475 552.5134,-1475 552.5134,-1481 546.5134,-1487 540.5134,-1487"/>
<text text-anchor="middle" x="525.5134" y="-1466" font-family="Times,serif" font-size="10.00" fill="#0000ff">vint9</text>
</g>
<!-- node64&#45;&gt;node66 -->
<g id="edge72" class="edge">
<title>node64&#45;&gt;node66</title>
<path fill="none" stroke="#000000" d="M525.5134,-1530.8468C525.5134,-1520.9251 525.5134,-1508.4167 525.5134,-1497.2492"/>
<polygon fill="#000000" stroke="#000000" points="529.0135,-1497.0814 525.5134,-1487.0814 522.0135,-1497.0814 529.0135,-1497.0814"/>
</g>
<!-- node65 -->
<g id="node66" class="node">
<title>node65</title>
<path fill="transparent" stroke="transparent" d="M572.5134,-1647C572.5134,-1647 542.5134,-1647 542.5134,-1647 536.5134,-1647 530.5134,-1641 530.5134,-1635 530.5134,-1635 530.5134,-1623 530.5134,-1623 530.5134,-1617 536.5134,-1611 542.5134,-1611 542.5134,-1611 572.5134,-1611 572.5134,-1611 578.5134,-1611 584.5134,-1617 584.5134,-1623 584.5134,-1623 584.5134,-1635 584.5134,-1635 584.5134,-1641 578.5134,-1647 572.5134,-1647"/>
<text text-anchor="middle" x="557.5134" y="-1626.3" font-family="Times,serif" font-size="9.00" fill="#000000">1</text>
</g>
<!-- node65&#45;&gt;node64 -->
<g id="edge71" class="edge">
<title>node65&#45;&gt;node64</title>
<path fill="none" stroke="#000000" d="M550.2521,-1610.8468C546.2016,-1600.7205 541.0733,-1587.8998 536.5375,-1576.5602"/>
<polygon fill="#000000" stroke="#000000" points="539.7096,-1575.0663 532.746,-1567.0814 533.2103,-1577.6661 539.7096,-1575.0663"/>
<text text-anchor="middle" x="544.5134" y="-1586.6" font-family="Times,serif" font-size="8.00" fill="#d3d3d3">b</text>
</g>
<!-- node69 -->
<g id="node70" class="node">
<title>node69</title>
<path fill="transparent" stroke="#000000" d="M798.5134,-1487C798.5134,-1487 768.5134,-1487 768.5134,-1487 762.5134,-1487 756.5134,-1481 756.5134,-1475 756.5134,-1475 756.5134,-1463 756.5134,-1463 756.5134,-1457 762.5134,-1451 768.5134,-1451 768.5134,-1451 798.5134,-1451 798.5134,-1451 804.5134,-1451 810.5134,-1457 810.5134,-1463 810.5134,-1463 810.5134,-1475 810.5134,-1475 810.5134,-1481 804.5134,-1487 798.5134,-1487"/>
<text text-anchor="middle" x="783.5134" y="-1466" font-family="Times,serif" font-size="10.00" fill="#0000ff">vint11</text>
</g>
<!-- node67&#45;&gt;node69 -->
<g id="edge75" class="edge">
<title>node67&#45;&gt;node69</title>
<path fill="none" stroke="#000000" d="M783.5134,-1530.8468C783.5134,-1520.9251 783.5134,-1508.4167 783.5134,-1497.2492"/>
<polygon fill="#000000" stroke="#000000" points="787.0135,-1497.0814 783.5134,-1487.0814 780.0135,-1497.0814 787.0135,-1497.0814"/>
</g>
<!-- node68 -->
<g id="node69" class="node">
<title>node68</title>
<path fill="transparent" stroke="transparent" d="M798.5134,-1647C798.5134,-1647 768.5134,-1647 768.5134,-1647 762.5134,-1647 756.5134,-1641 756.5134,-1635 756.5134,-1635 756.5134,-1623 756.5134,-1623 756.5134,-1617 762.5134,-1611 768.5134,-1611 768.5134,-1611 798.5134,-1611 798.5134,-1611 804.5134,-1611 810.5134,-1617 810.5134,-1623 810.5134,-1623 810.5134,-1635 810.5134,-1635 810.5134,-1641 804.5134,-1647 798.5134,-1647"/>
<text text-anchor="middle" x="783.5134" y="-1626.3" font-family="Times,serif" font-size="9.00" fill="#000000">1</text>
</g>
<!-- node68&#45;&gt;node67 -->
<g id="edge74" class="edge">
<title>node68&#45;&gt;node67</title>
<path fill="none" stroke="#000000" d="M783.5134,-1610.8468C783.5134,-1600.9251 783.5134,-1588.4167 783.5134,-1577.2492"/>
<polygon fill="#000000" stroke="#000000" points="787.0135,-1577.0814 783.5134,-1567.0814 780.0135,-1577.0814 787.0135,-1577.0814"/>
<text text-anchor="middle" x="785.5134" y="-1586.6" font-family="Times,serif" font-size="8.00" fill="#d3d3d3">b</text>
</g>
<!-- node70&#45;&gt;node4 -->
<g id="edge78" class="edge">
<title>node70&#45;&gt;node4</title>
<path fill="none" stroke="#000000" d="M425.1205,-1370.8468C436.2338,-1360.0045 450.5134,-1346.0732 462.7054,-1334.1785"/>
<polygon fill="#000000" stroke="#000000" points="465.2663,-1336.5699 469.98,-1327.0814 460.378,-1331.5594 465.2663,-1336.5699"/>
</g>
<!-- node71 -->
<g id="node72" class="node">
<title>node71</title>
<path fill="transparent" stroke="transparent" d="M430.5134,-1487C430.5134,-1487 400.5134,-1487 400.5134,-1487 394.5134,-1487 388.5134,-1481 388.5134,-1475 388.5134,-1475 388.5134,-1463 388.5134,-1463 388.5134,-1457 394.5134,-1451 400.5134,-1451 400.5134,-1451 430.5134,-1451 430.5134,-1451 436.5134,-1451 442.5134,-1457 442.5134,-1463 442.5134,-1463 442.5134,-1475 442.5134,-1475 442.5134,-1481 436.5134,-1487 430.5134,-1487"/>
<text text-anchor="middle" x="415.5134" y="-1466.3" font-family="Times,serif" font-size="9.00" fill="#000000">0</text>
</g>
<!-- node71&#45;&gt;node70 -->
<g id="edge77" class="edge">
<title>node71&#45;&gt;node70</title>
<path fill="none" stroke="#000000" d="M413.4712,-1450.8468C412.355,-1440.9251 410.9478,-1428.4167 409.6915,-1417.2492"/>
<polygon fill="#000000" stroke="#000000" points="413.1437,-1416.6274 408.5476,-1407.0814 406.1876,-1417.41 413.1437,-1416.6274"/>
<text text-anchor="middle" x="413.5134" y="-1426.6" font-family="Times,serif" font-size="8.00" fill="#d3d3d3">b</text>
</g>
<!-- node72&#45;&gt;node59 -->
<g id="edge81" class="edge">
<title>node72&#45;&gt;node59</title>
<path fill="none" stroke="#000000" d="M304.7403,-1530.8468C304.8644,-1520.9251 305.0207,-1508.4167 305.1603,-1497.2492"/>
<polygon fill="#000000" stroke="#000000" points="308.662,-1497.1244 305.2874,-1487.0814 301.6626,-1497.0368 308.662,-1497.1244"/>
</g>
<!-- node73 -->
<g id="node74" class="node">
<title>node73</title>
<path fill="transparent" stroke="transparent" d="M333.1539,-1647C333.1539,-1647 275.873,-1647 275.873,-1647 269.873,-1647 263.873,-1641 263.873,-1635 263.873,-1635 263.873,-1623 263.873,-1623 263.873,-1617 269.873,-1611 275.873,-1611 275.873,-1611 333.1539,-1611 333.1539,-1611 339.1539,-1611 345.1539,-1617 345.1539,-1623 345.1539,-1623 345.1539,-1635 345.1539,-1635 345.1539,-1641 339.1539,-1647 333.1539,-1647"/>
<text text-anchor="middle" x="304.5134" y="-1626" font-family="Times,serif" font-size="10.00" fill="#0000ff">firstYear[player]</text>
</g>
<!-- node73&#45;&gt;node72 -->
<g id="edge80" class="edge">
<title>node73&#45;&gt;node72</title>
<path fill="none" stroke="#000000" d="M304.5134,-1610.8468C304.5134,-1600.9251 304.5134,-1588.4167 304.5134,-1577.2492"/>
<polygon fill="#000000" stroke="#000000" points="308.0135,-1577.0814 304.5134,-1567.0814 301.0135,-1577.0814 308.0135,-1577.0814"/>
<text text-anchor="middle" x="306.5134" y="-1586.6" font-family="Times,serif" font-size="8.00" fill="#d3d3d3">b</text>
</g>
<!-- node74 -->
<g id="node75" class="node">
<title>node74</title>
<path fill="transparent" stroke="transparent" d="M979.8222,-1407C979.8222,-1407 897.2047,-1407 897.2047,-1407 891.2047,-1407 885.2047,-1401 885.2047,-1395 885.2047,-1395 885.2047,-1383 885.2047,-1383 885.2047,-1377 891.2047,-1371 897.2047,-1371 897.2047,-1371 979.8222,-1371 979.8222,-1371 985.8222,-1371 991.8222,-1377 991.8222,-1383 991.8222,-1383 991.8222,-1395 991.8222,-1395 991.8222,-1401 985.8222,-1407 979.8222,-1407"/>
<text text-anchor="middle" x="938.5134" y="-1386.3" font-family="Times,serif" font-size="9.00" fill="#000000">Gaussian(1200, 6.4e+05)</text>
</g>
<!-- node75 -->
<g id="node76" class="node">
<title>node75</title>
<path fill="#000000" stroke="#000000" d="M832.5134,-1327C832.5134,-1327 802.5134,-1327 802.5134,-1327 796.5134,-1327 790.5134,-1321 790.5134,-1315 790.5134,-1315 790.5134,-1303 790.5134,-1303 790.5134,-1297 796.5134,-1291 802.5134,-1291 802.5134,-1291 832.5134,-1291 832.5134,-1291 838.5134,-1291 844.5134,-1297 844.5134,-1303 844.5134,-1303 844.5134,-1315 844.5134,-1315 844.5134,-1321 838.5134,-1327 832.5134,-1327"/>
<text text-anchor="middle" x="817.5134" y="-1306.6" font-family="Times,serif" font-size="8.00" fill="#ffffff">Random</text>
</g>
<!-- node74&#45;&gt;node75 -->
<g id="edge82" class="edge">
<title>node74&#45;&gt;node75</title>
<path fill="none" stroke="#000000" d="M911.0567,-1370.8468C893.9616,-1359.5443 871.7892,-1344.8848 853.3219,-1332.675"/>
<polygon fill="#000000" stroke="#000000" points="855.1335,-1329.677 844.8615,-1327.0814 851.2729,-1335.5162 855.1335,-1329.677"/>
<text text-anchor="middle" x="887.2927" y="-1346.6" font-family="Times,serif" font-size="8.00" fill="#d3d3d3">dist</text>
</g>
<!-- node75&#45;&gt;node3 -->
<g id="edge83" class="edge">
<title>node75&#45;&gt;node3</title>
<path fill="none" stroke="#000000" d="M790.4554,-1295.2948C787.4485,-1293.8243 784.4225,-1292.3673 781.5134,-1291 752.1136,-1277.1821 718.8525,-1262.6041 691.9153,-1251.0581"/>
<polygon fill="#000000" stroke="#000000" points="693.2387,-1247.8175 682.6677,-1247.1067 690.4882,-1254.2545 693.2387,-1247.8175"/>
</g>
<!-- node76&#45;&gt;node54 -->
<g id="edge87" class="edge">
<title>node76&#45;&gt;node54</title>
<path fill="none" stroke="#000000" d="M497.8936,-1370.8468C508.8713,-1360.0045 522.9768,-1346.0732 535.0202,-1334.1785"/>
<polygon fill="#000000" stroke="#000000" points="537.5506,-1336.5986 542.206,-1327.0814 532.6317,-1331.6182 537.5506,-1336.5986"/>
</g>
<!-- node77 -->
<g id="node78" class="node">
<title>node77</title>
<path fill="transparent" stroke="transparent" d="M612.5134,-1487C612.5134,-1487 582.5134,-1487 582.5134,-1487 576.5134,-1487 570.5134,-1481 570.5134,-1475 570.5134,-1475 570.5134,-1463 570.5134,-1463 570.5134,-1457 576.5134,-1451 582.5134,-1451 582.5134,-1451 612.5134,-1451 612.5134,-1451 618.5134,-1451 624.5134,-1457 624.5134,-1463 624.5134,-1463 624.5134,-1475 624.5134,-1475 624.5134,-1481 618.5134,-1487 612.5134,-1487"/>
<text text-anchor="middle" x="597.5134" y="-1466.3" font-family="Times,serif" font-size="9.00" fill="#000000">0</text>
</g>
<!-- node77&#45;&gt;node76 -->
<g id="edge86" class="edge">
<title>node77&#45;&gt;node76</title>
<path fill="none" stroke="#000000" d="M570.7374,-1450.8468C554.1417,-1439.5954 532.6391,-1425.0174 514.6788,-1412.8409"/>
<polygon fill="#000000" stroke="#000000" points="516.4247,-1409.796 506.1835,-1407.0814 512.4965,-1415.59 516.4247,-1409.796"/>
<text text-anchor="middle" x="544.5134" y="-1426.6" font-family="Times,serif" font-size="8.00" fill="#d3d3d3">b</text>
</g>
<!-- node78 -->
<g id="node79" class="node">
<title>node78</title>
<path fill="transparent" stroke="transparent" d="M354.0577,-1327C354.0577,-1327 256.9691,-1327 256.9691,-1327 250.9691,-1327 244.9691,-1321 244.9691,-1315 244.9691,-1315 244.9691,-1303 244.9691,-1303 244.9691,-1297 250.9691,-1291 256.9691,-1291 256.9691,-1291 354.0577,-1291 354.0577,-1291 360.0577,-1291 366.0577,-1297 366.0577,-1303 366.0577,-1303 366.0577,-1315 366.0577,-1315 366.0577,-1321 360.0577,-1327 354.0577,-1327"/>
<text text-anchor="middle" x="305.5134" y="-1306.3" font-family="Times,serif" font-size="9.00" fill="#000000">Gamma(2, 0.01)[mean=0.02]</text>
</g>
<!-- node79 -->
<g id="node80" class="node">
<title>node79</title>
<path fill="#000000" stroke="#000000" d="M398.5134,-1247C398.5134,-1247 368.5134,-1247 368.5134,-1247 362.5134,-1247 356.5134,-1241 356.5134,-1235 356.5134,-1235 356.5134,-1223 356.5134,-1223 356.5134,-1217 362.5134,-1211 368.5134,-1211 368.5134,-1211 398.5134,-1211 398.5134,-1211 404.5134,-1211 410.5134,-1217 410.5134,-1223 410.5134,-1223 410.5134,-1235 410.5134,-1235 410.5134,-1241 404.5134,-1247 398.5134,-1247"/>
<text text-anchor="middle" x="383.5134" y="-1226.6" font-family="Times,serif" font-size="8.00" fill="#ffffff">Random</text>
</g>
<!-- node78&#45;&gt;node79 -->
<g id="edge88" class="edge">
<title>node78&#45;&gt;node79</title>
<path fill="none" stroke="#000000" d="M326.7351,-1290.7962C332.938,-1285.2388 339.6288,-1279.0062 345.5134,-1273 351.0496,-1267.3494 356.7577,-1261.0346 362.0135,-1254.9919"/>
<polygon fill="#000000" stroke="#000000" points="365.0016,-1256.883 368.8415,-1247.0085 359.6819,-1252.3331 365.0016,-1256.883"/>
<text text-anchor="middle" x="358.2927" y="-1266.6" font-family="Times,serif" font-size="8.00" fill="#d3d3d3">dist</text>
</g>
<!-- node79&#45;&gt;node58 -->
<g id="edge89" class="edge">
<title>node79&#45;&gt;node58</title>
<path fill="none" stroke="#000000" d="M395.3786,-1210.9551C400.9748,-1202.4441 407.7656,-1192.1165 413.9429,-1182.7219"/>
<polygon fill="#000000" stroke="#000000" points="417.0487,-1184.3689 419.6184,-1174.0904 411.1998,-1180.523 417.0487,-1184.3689"/>
</g>
<!-- node80 -->
<g id="node81" class="node">
<title>node80</title>
<path fill="transparent" stroke="transparent" d="M119.0403,-1567C119.0403,-1567 11.9866,-1567 11.9866,-1567 5.9866,-1567 -.0134,-1561 -.0134,-1555 -.0134,-1555 -.0134,-1543 -.0134,-1543 -.0134,-1537 5.9866,-1531 11.9866,-1531 11.9866,-1531 119.0403,-1531 119.0403,-1531 125.0403,-1531 131.0403,-1537 131.0403,-1543 131.0403,-1543 131.0403,-1555 131.0403,-1555 131.0403,-1561 125.0403,-1567 119.0403,-1567"/>
<text text-anchor="middle" x="65.5134" y="-1546.3" font-family="Times,serif" font-size="9.00" fill="#000000">Gamma(2, 4e&#45;06)[mean=8e&#45;06]</text>
</g>
<!-- node81 -->
<g id="node82" class="node">
<title>node81</title>
<path fill="#000000" stroke="#000000" d="M80.5134,-1487C80.5134,-1487 50.5134,-1487 50.5134,-1487 44.5134,-1487 38.5134,-1481 38.5134,-1475 38.5134,-1475 38.5134,-1463 38.5134,-1463 38.5134,-1457 44.5134,-1451 50.5134,-1451 50.5134,-1451 80.5134,-1451 80.5134,-1451 86.5134,-1451 92.5134,-1457 92.5134,-1463 92.5134,-1463 92.5134,-1475 92.5134,-1475 92.5134,-1481 86.5134,-1487 80.5134,-1487"/>
<text text-anchor="middle" x="65.5134" y="-1466.6" font-family="Times,serif" font-size="8.00" fill="#ffffff">Random</text>
</g>
<!-- node80&#45;&gt;node81 -->
<g id="edge90" class="edge">
<title>node80&#45;&gt;node81</title>
<path fill="none" stroke="#000000" d="M65.5134,-1530.8468C65.5134,-1520.9251 65.5134,-1508.4167 65.5134,-1497.2492"/>
<polygon fill="#000000" stroke="#000000" points="69.0135,-1497.0814 65.5134,-1487.0814 62.0135,-1497.0814 69.0135,-1497.0814"/>
<text text-anchor="middle" x="71.2927" y="-1506.6" font-family="Times,serif" font-size="8.00" fill="#d3d3d3">dist</text>
</g>
<!-- node81&#45;&gt;node52 -->
<g id="edge91" class="edge">
<title>node81&#45;&gt;node52</title>
<path fill="none" stroke="#000000" d="M65.5134,-1450.8468C65.5134,-1440.9251 65.5134,-1428.4167 65.5134,-1417.2492"/>
<polygon fill="#000000" stroke="#000000" points="69.0135,-1417.0814 65.5134,-1407.0814 62.0135,-1417.0814 69.0135,-1417.0814"/>
</g>
<!-- node82 -->
<g id="node83" class="node">
<title>node82</title>
<path fill="transparent" stroke="transparent" d="M241.8225,-1567C241.8225,-1567 163.2044,-1567 163.2044,-1567 157.2044,-1567 151.2044,-1561 151.2044,-1555 151.2044,-1555 151.2044,-1543 151.2044,-1543 151.2044,-1537 157.2044,-1531 163.2044,-1531 163.2044,-1531 241.8225,-1531 241.8225,-1531 247.8225,-1531 253.8225,-1537 253.8225,-1543 253.8225,-1543 253.8225,-1555 253.8225,-1555 253.8225,-1561 247.8225,-1567 241.8225,-1567"/>
<text text-anchor="middle" x="202.5134" y="-1546.3" font-family="Times,serif" font-size="9.00" fill="#000000">Gaussian(700, 2.5e+05)</text>
</g>
<!-- node83 -->
<g id="node84" class="node">
<title>node83</title>
<path fill="#000000" stroke="#000000" d="M217.5134,-1487C217.5134,-1487 187.5134,-1487 187.5134,-1487 181.5134,-1487 175.5134,-1481 175.5134,-1475 175.5134,-1475 175.5134,-1463 175.5134,-1463 175.5134,-1457 181.5134,-1451 187.5134,-1451 187.5134,-1451 217.5134,-1451 217.5134,-1451 223.5134,-1451 229.5134,-1457 229.5134,-1463 229.5134,-1463 229.5134,-1475 229.5134,-1475 229.5134,-1481 223.5134,-1487 217.5134,-1487"/>
<text text-anchor="middle" x="202.5134" y="-1466.6" font-family="Times,serif" font-size="8.00" fill="#ffffff">Random</text>
</g>
<!-- node82&#45;&gt;node83 -->
<g id="edge92" class="edge">
<title>node82&#45;&gt;node83</title>
<path fill="none" stroke="#000000" d="M202.5134,-1530.8468C202.5134,-1520.9251 202.5134,-1508.4167 202.5134,-1497.2492"/>
<polygon fill="#000000" stroke="#000000" points="206.0135,-1497.0814 202.5134,-1487.0814 199.0135,-1497.0814 206.0135,-1497.0814"/>
<text text-anchor="middle" x="208.2927" y="-1506.6" font-family="Times,serif" font-size="8.00" fill="#d3d3d3">dist</text>
</g>
<!-- node83&#45;&gt;node50 -->
<g id="edge93" class="edge">
<title>node83&#45;&gt;node50</title>
<path fill="none" stroke="#000000" d="M202.5134,-1450.8468C202.5134,-1440.9251 202.5134,-1428.4167 202.5134,-1417.2492"/>
<polygon fill="#000000" stroke="#000000" points="206.0135,-1417.0814 202.5134,-1407.0814 199.0135,-1417.0814 206.0135,-1417.0814"/>
</g>
<!-- node84 -->
<g id="node85" class="node">
<title>node84</title>
<path fill="transparent" stroke="transparent" d="M726.0575,-1567C726.0575,-1567 592.9693,-1567 592.9693,-1567 586.9693,-1567 580.9693,-1561 580.9693,-1555 580.9693,-1555 580.9693,-1543 580.9693,-1543 580.9693,-1537 586.9693,-1531 592.9693,-1531 592.9693,-1531 726.0575,-1531 726.0575,-1531 732.0575,-1531 738.0575,-1537 738.0575,-1543 738.0575,-1543 738.0575,-1555 738.0575,-1555 738.0575,-1561 732.0575,-1567 726.0575,-1567"/>
<text text-anchor="middle" x="659.5134" y="-1546.3" font-family="Times,serif" font-size="9.00" fill="#000000">Gamma(2, 0.001479)[mean=0.002959]</text>
</g>
<!-- node85 -->
<g id="node86" class="node">
<title>node85</title>
<path fill="#000000" stroke="#000000" d="M684.5134,-1487C684.5134,-1487 654.5134,-1487 654.5134,-1487 648.5134,-1487 642.5134,-1481 642.5134,-1475 642.5134,-1475 642.5134,-1463 642.5134,-1463 642.5134,-1457 648.5134,-1451 654.5134,-1451 654.5134,-1451 684.5134,-1451 684.5134,-1451 690.5134,-1451 696.5134,-1457 696.5134,-1463 696.5134,-1463 696.5134,-1475 696.5134,-1475 696.5134,-1481 690.5134,-1487 684.5134,-1487"/>
<text text-anchor="middle" x="669.5134" y="-1466.6" font-family="Times,serif" font-size="8.00" fill="#ffffff">Random</text>
</g>
<!-- node84&#45;&gt;node85 -->
<g id="edge94" class="edge">
<title>node84&#45;&gt;node85</title>
<path fill="none" stroke="#000000" d="M661.7826,-1530.8468C663.0228,-1520.9251 664.5863,-1508.4167 665.9823,-1497.2492"/>
<polygon fill="#000000" stroke="#000000" points="669.4858,-1497.4383 667.2533,-1487.0814 662.5398,-1496.57 669.4858,-1497.4383"/>
<text text-anchor="middle" x="670.2927" y="-1506.6" font-family="Times,serif" font-size="8.00" fill="#d3d3d3">dist</text>
</g>
<!-- node85&#45;&gt;node2 -->
<g id="edge95" class="edge">
<title>node85&#45;&gt;node2</title>
<path fill="none" stroke="#000000" d="M648.8641,-1450.8468C636.4148,-1439.9023 620.3849,-1425.8101 606.7717,-1413.8424"/>
<polygon fill="#000000" stroke="#000000" points="608.9024,-1411.0553 599.081,-1407.0814 604.2805,-1416.3126 608.9024,-1411.0553"/>
</g>
</g>
</svg>
